<?xml version="1.0" encoding="UTF-8" standalone="no"?>
<!-- Created with Inkscape (http://www.inkscape.org/) -->

<svg
   xmlns:dc="http://purl.org/dc/elements/1.1/"
   xmlns:cc="http://creativecommons.org/ns#"
   xmlns:rdf="http://www.w3.org/1999/02/22-rdf-syntax-ns#"
   xmlns:svg="http://www.w3.org/2000/svg"
   xmlns="http://www.w3.org/2000/svg"
   xmlns:sodipodi="http://sodipodi.sourceforge.net/DTD/sodipodi-0.dtd"
   xmlns:inkscape="http://www.inkscape.org/namespaces/inkscape"
   width="61.047962mm"
   height="52.886131mm"
   viewBox="0 0 61.047962 52.886131"
   version="1.1"
   id="svg440"
   inkscape:version="0.92.3 (unknown)"
   sodipodi:docname="satrday.svg">
  <defs
     id="defs434" />
  <sodipodi:namedview
     id="base"
     pagecolor="#ffffff"
     bordercolor="#666666"
     borderopacity="1.0"
     inkscape:pageopacity="0.0"
     inkscape:pageshadow="2"
     inkscape:zoom="1.4"
     inkscape:cx="-5.9801841"
     inkscape:cy="14.408888"
     inkscape:document-units="mm"
     inkscape:current-layer="layer1"
     showgrid="false"
     inkscape:window-width="1855"
     inkscape:window-height="1056"
     inkscape:window-x="65"
     inkscape:window-y="24"
     inkscape:window-maximized="1" />
  <metadata
     id="metadata437">
    <rdf:RDF>
      <cc:Work
         rdf:about="">
        <dc:format>image/svg+xml</dc:format>
        <dc:type
           rdf:resource="http://purl.org/dc/dcmitype/StillImage" />
        <dc:title></dc:title>
      </cc:Work>
    </rdf:RDF>
  </metadata>
  <g
     inkscape:label="Layer 1"
     inkscape:groupmode="layer"
     id="layer1"
     transform="translate(-68.17251,-81.605195)">
    <g
       id="g453"
       transform="matrix(0.72099799,0,0,0.72099799,22.39087,0.74064513)">
      <path
         style="fill:#fdfdfe;stroke-width:0.08466667"
         d="m 63.5,148.83334 v -36.66067 h 42.33333 42.33333 v 36.66067 36.66067 H 105.83333 63.5 Z"
         id="path469"
         inkscape:connector-curvature="0" />
      <path
         style="fill:#b5cbe5;stroke-width:0.08466667"
         d="M 84.513564,185.36207 C 84.327782,185.1516 63.718686,149.40328 63.613188,149.1085 c -0.07486,-0.20917 -0.07486,-0.34116 0,-0.55033 0.119525,-0.33397 20.746507,-36.09062 20.91935,-36.26347 0.184383,-0.18438 42.417202,-0.18438 42.601592,0 0.17284,0.17285 20.79982,35.9295 20.91935,36.26347 0.0749,0.20917 0.0749,0.34116 0,0.55033 -0.11953,0.33398 -20.74651,36.09063 -20.91935,36.26347 -0.18742,0.18742 -42.455061,0.1776 -42.620566,-0.01 z m 25.490576,-18.09259 c 0.42136,-0.32138 0.5969,-0.74222 0.55444,-1.32919 -0.0418,-0.5772 -0.27634,-0.95006 -0.74967,-1.19154 -1.48568,-0.75793 -2.92459,1.10653 -1.79002,2.3194 0.33671,0.35995 0.66749,0.48308 1.214,0.45189 0.35883,-0.0205 0.55178,-0.0832 0.77125,-0.25056 z m 6.86608,-3.05862 c 0.64843,-0.27094 1.03647,-1.12988 0.82671,-1.82998 -0.10783,-0.35989 -0.64764,-0.8977 -0.98639,-0.98272 -0.63044,-0.15823 -1.47718,0.16478 -1.74531,0.66579 -0.27308,0.51025 -0.22844,1.214 0.10686,1.6849 0.36309,0.50991 1.1807,0.71999 1.79813,0.46201 z m -14.99583,-9.09102 0.0219,-4.29684 0.762,0.004 c 0.65128,0.004 0.82351,0.0363 1.18534,0.22493 0.78487,0.40908 0.86987,0.53789 3.17316,4.80844 0.99207,1.83938 1.84114,3.39196 1.88683,3.45016 0.11502,0.14654 7.17434,0.15524 7.17434,0.009 0,-0.0533 -0.7091,-1.47257 -1.57577,-3.15383 -2.30118,-4.46408 -2.77931,-5.04972 -4.80205,-5.88177 -0.13171,-0.0542 -0.22481,-0.14252 -0.20688,-0.19631 0.0179,-0.0538 0.3543,-0.19831 0.74748,-0.32114 1.99145,-0.62216 3.40871,-1.94643 3.98904,-3.7273 0.27745,-0.85145 0.31692,-2.61828 0.0796,-3.56439 -0.26482,-1.05579 -0.62791,-1.70937 -1.36412,-2.45545 -1.0363,-1.0502 -2.13797,-1.47037 -4.40266,-1.67915 -0.57838,-0.0533 -3.43992,-0.0899 -7.0485,-0.09 L 95.419332,138.25 v 10.58334 10.58333 h 3.216558 3.21656 z m 0.036,-8.29028 c -0.031,-0.031 -0.0564,-1.0203 -0.0564,-2.19835 0,-2.031 0.008,-2.14645 0.16377,-2.22956 0.20305,-0.10867 2.46616,-0.11169 3.56156,-0.005 0.44239,0.0432 0.97564,0.13907 1.18502,0.21308 1.2382,0.43767 1.70333,2.03476 0.92926,3.19073 -0.35347,0.52785 -0.71479,0.73315 -1.61848,0.91962 -0.62338,0.12863 -1.14535,0.16369 -2.45019,0.16456 -0.91193,6e-4 -1.68345,-0.0243 -1.7145,-0.0553 z m -10.953232,11.96472 c 0.372525,-0.15565 0.800902,-0.66361 0.869925,-1.03153 0.198082,-1.05587 -0.526178,-1.8767 -1.58812,-1.79989 -0.830845,0.0601 -1.271691,0.51497 -1.317325,1.35922 -0.0233,0.43105 0.0071,0.58941 0.165379,0.86057 0.354288,0.6071 1.21067,0.88718 1.870141,0.61163 z m -9.952628,-4.54049 c 0.245092,-0.22834 0.299198,-0.6875 0.263375,-2.23509 -0.03558,-1.53728 0.18575,-1.11319 -1.88026,-3.60264 -0.789479,-0.95129 -1.486545,-1.82759 -1.549035,-1.94733 -0.152825,-0.29286 -0.1593,-2.19865 -0.0082,-2.40533 0.0937,-0.12815 0.253788,-0.14279 1.3335,-0.12201 l 1.227009,0.0236 0.02346,1.25338 0.02346,1.25338 0.399877,-0.0257 0.399877,-0.0257 0.02575,-1.05834 c 0.03171,-1.30298 -0.02519,-1.73144 -0.25884,-1.94911 -0.1669,-0.15549 -0.302945,-0.16755 -1.890166,-0.16755 -2.268612,0 -2.101546,-0.13816 -2.136782,1.76704 -0.02194,1.18636 -0.0027,1.49334 0.108016,1.72217 0.0741,0.15315 0.858531,1.15094 1.743191,2.21731 l 1.608473,1.93886 -0.02316,1.40548 -0.02316,1.40547 -1.227011,0.0236 c -1.079711,0.0208 -1.239795,0.006 -1.3335,-0.12202 -0.07411,-0.10145 -0.106404,-0.5259 -0.106404,-1.39944 V 150.95 h -0.386236 -0.386236 l 0.0264,1.57399 c 0.03451,2.05704 -0.145311,1.89735 2.136484,1.89735 1.587221,0 1.723266,-0.0121 1.890166,-0.16755 z m 2.785442,-1.05099 c 0.111663,-0.70635 0.230889,-1.2047 0.298459,-1.24754 0.06189,-0.0392 0.569718,-0.0713 1.128518,-0.0713 0.5588,0 1.066633,0.0321 1.128519,0.0713 0.06757,0.0428 0.186814,0.54123 0.298491,1.24754 l 0.185972,1.1762 0.407825,0.0261 c 0.406962,0.0261 0.407718,0.0256 0.356742,-0.21167 -0.08411,-0.39152 -1.911882,-10.78159 -1.911882,-10.86818 0,-0.044 -0.189774,-0.0799 -0.42172,-0.0799 -0.367715,0 -0.427416,0.0244 -0.466202,0.1905 -0.107949,0.46231 -1.906078,10.67621 -1.906078,10.82708 0,0.14533 0.04854,0.16462 0.357707,0.14212 l 0.357709,-0.026 z m 0.397341,-2.1308 c -0.04127,-0.10755 0.716608,-5.10418 0.87571,-5.7735 0.05371,-0.22595 0.251703,-0.25282 0.311859,-0.0423 0.125331,0.43855 0.914593,5.70406 0.871738,5.81574 -0.07518,0.19592 -1.984128,0.196 -2.059307,8e-5 z m 7.019157,-1.87883 0.02181,-5.22817 0.846667,-0.0423 0.846667,-0.0423 0.02628,-0.3175 0.02628,-0.3175 H 90.81011 88.645999 v 0.33866 0.33867 h 0.801355 c 0.705623,0 0.811825,0.0196 0.889,0.16377 0.05763,0.10767 0.08764,1.90563 0.08764,5.24933 v 5.08557 h 0.380354 0.380354 z m 28.43946,5.12991 c 0.47617,-0.14267 0.96438,-0.59733 1.14552,-1.06681 0.14219,-0.36851 0.15483,-0.7296 0.15483,-4.42293 0,-4.55497 -5.9e-4,-4.55966 -0.6452,-5.11143 -0.48991,-0.41934 -0.84911,-0.48732 -2.4253,-0.45899 l -1.37717,0.0247 6.8e-4,5.5245 c 4.2e-4,3.03848 9.9e-4,5.54355 0.001,5.56683 10e-4,0.0894 2.82811,0.0391 3.14528,-0.0559 z m -2.341,-0.67763 c -0.0238,-0.0622 -0.0334,-2.26576 -0.0213,-4.89678 l 0.022,-4.78367 0.9361,-0.0238 c 0.8567,-0.0218 0.96016,-0.007 1.21988,0.16933 0.15608,0.10622 0.36349,0.30069 0.46091,0.43216 0.17391,0.23472 0.17711,0.31231 0.17711,4.29063 0,3.96001 -0.004,4.05686 -0.17456,4.28539 -0.38239,0.51217 -0.56255,0.58062 -1.60919,0.61139 -0.74957,0.022 -0.97739,0.003 -1.01093,-0.0847 z m 5.99614,0.58539 c 0.0247,-0.10478 0.10922,-0.62865 0.18794,-1.16417 0.0956,-0.65047 0.18753,-1.0088 0.27688,-1.0795 0.19266,-0.15244 2.16298,-0.14721 2.29021,0.006 0.0511,0.0616 0.17267,0.60284 0.27019,1.20285 0.0975,0.60001 0.19599,1.12115 0.21882,1.15809 0.0228,0.0369 0.19165,0.0671 0.37517,0.0671 0.2907,0 0.33318,-0.0245 0.3299,-0.1905 -0.002,-0.10478 -0.43212,-2.60985 -0.95566,-5.56684 l -0.95189,-5.37633 -0.39987,-0.0258 c -0.27137,-0.0175 -0.41272,0.01 -0.43985,0.0847 -0.022,0.0608 -0.45965,2.47271 -0.97259,5.35985 -0.51294,2.88713 -0.95479,5.3541 -0.98189,5.48216 -0.048,0.22663 -0.0392,0.23284 0.32928,0.23284 0.32285,0 0.38514,-0.028 0.42336,-0.1905 z m 0.54421,-3.13267 c -0.0221,-0.0582 0.17423,-1.41983 0.43622,-3.02582 0.40472,-2.48094 0.49851,-2.92426 0.62373,-2.94838 0.0811,-0.0156 0.14738,-0.008 0.14738,0.0167 0,0.0248 0.21059,1.34998 0.46796,2.94485 0.25738,1.59487 0.44907,2.94898 0.42599,3.00912 -0.059,0.15371 -2.04309,0.15704 -2.10128,0.004 z m 7.39213,0.91017 0.0465,-2.37067 0.3886,-1.18533 c 0.21374,-0.65194 0.64425,-2.03972 0.95671,-3.08396 0.31245,-1.04424 0.58748,-1.94912 0.61116,-2.01083 0.0322,-0.0838 -0.0624,-0.11221 -0.37343,-0.11221 h -0.41649 l -0.74823,2.75166 c -0.74761,2.74939 -0.8702,3.04771 -1.05247,2.56117 -0.0392,-0.10477 -0.38723,-1.34302 -0.7733,-2.75167 l -0.70194,-2.56116 h -0.41899 c -0.32879,0 -0.40898,0.0261 -0.37247,0.12123 0.0256,0.0667 0.29883,0.97155 0.60722,2.01083 0.30838,1.03928 0.74872,2.47324 0.97854,3.18658 l 0.41783,1.29697 v 2.28483 2.28484 l 0.40217,-0.0258 0.40217,-0.0258 z m -9.23655,-10.45442 c 0.53403,-0.27244 0.72342,-0.61651 0.72342,-1.31425 0,-0.69774 -0.18939,-1.0418 -0.72342,-1.31425 -1.48568,-0.75793 -2.92459,1.10652 -1.79003,2.31939 0.45712,0.48867 1.19,0.61522 1.79003,0.30911 z m -19.40187,-9.09602 c 0.95921,-0.50112 1.15299,-1.72035 0.38722,-2.43634 -0.65614,-0.61349 -1.73353,-0.5155 -2.24696,0.20436 -0.28501,0.39958 -0.28518,1.33968 -3.4e-4,1.73906 0.38635,0.54167 1.30217,0.78437 1.86005,0.49292 z m 7.40321,-0.15432 c 0.42319,-0.32277 0.59884,-0.74291 0.55633,-1.33062 -0.0418,-0.57721 -0.27634,-0.95006 -0.74967,-1.19154 -0.99523,-0.50773 -2.19758,0.21133 -2.19758,1.31425 0,0.54136 0.2688,0.98523 0.80434,1.32819 0.38002,0.24338 1.19035,0.18194 1.58658,-0.12028 z"
         id="path467"
         inkscape:connector-curvature="0" />
      <path
         style="fill:#8eb0d9;stroke-width:0.08466667"
         d="m 84.47035,185.1765 c -0.737575,-1.1801 -20.92149,-36.24201 -20.92149,-36.34316 0,-0.10116 20.183915,-35.16307 20.92149,-36.34317 l 0.19844,-0.3175 h 21.16454 21.16454 l 0.19844,0.3175 c 0.73758,1.1801 20.92149,36.24201 20.92149,36.34317 0,0.10115 -20.18391,35.16306 -20.92149,36.34316 l -0.19844,0.31751 H 105.83333 84.66879 Z m 25.57385,-17.85482 c 0.41158,-0.32885 0.61484,-0.73601 0.615,-1.232 2.5e-4,-0.69917 -0.25811,-1.12107 -0.88248,-1.44117 -0.24927,-0.1278 -0.44363,-0.16112 -0.77807,-0.13339 -1.21817,0.10102 -1.86452,1.41111 -1.1952,2.42253 0.47932,0.7243 1.57898,0.91276 2.24075,0.38403 z m 6.92895,-3.08199 c 0.20245,-0.098 0.46043,-0.32307 0.59823,-0.52192 0.20253,-0.29225 0.24228,-0.43518 0.24228,-0.87104 0,-0.65875 -0.27519,-1.12142 -0.82547,-1.3878 -0.81776,-0.39587 -1.73384,-0.10379 -2.14542,0.68404 -0.15212,0.29118 -0.15388,1.0083 -0.003,1.36159 0.33238,0.78006 1.33053,1.12396 2.13373,0.73513 z m -15.05488,-9.07752 0.0219,-4.29683 0.57072,5.1e-4 c 1.09785,9e-4 1.73243,0.33902 2.32354,1.238 0.21042,0.32002 1.19448,2.08681 2.1868,3.92619 0.99232,1.83938 1.84536,3.37232 1.89564,3.40654 0.12584,0.0856 7.22536,0.0816 7.27835,-0.004 0.0641,-0.10374 -3.12716,-6.2417 -3.56912,-6.86468 -0.69919,-0.98559 -1.4208,-1.67538 -2.08369,-1.99178 -0.33154,-0.15825 -0.66947,-0.30908 -0.75096,-0.33518 -0.25281,-0.081 -0.16404,-0.21137 0.21167,-0.31094 2.22626,-0.59 3.86202,-2.1557 4.38387,-4.1961 0.211,-0.82503 0.22584,-2.31665 0.0317,-3.19135 -0.35331,-1.59218 -1.38114,-2.91483 -2.78577,-3.58482 -1.48622,-0.70891 -2.78229,-0.80611 -10.32933,-0.77462 l -5.926671,0.0247 -0.02178,10.541 c -0.01198,5.79755 -0.0035,10.58908 0.0189,10.64784 0.03197,0.084 0.734119,0.1021 3.281446,0.0847 l 3.240765,-0.0222 z m 0.16856,-8.32872 c -0.13605,-0.0409 -0.14816,-0.22037 -0.14816,-2.19571 v -2.15118 l 0.22351,-0.0561 c 0.12293,-0.0309 1.0278,-0.0342 2.01083,-0.007 1.98163,0.0541 2.60592,0.16585 3.09966,0.55497 0.85578,0.67447 0.95021,2.2003 0.186,3.00549 -0.56016,0.59021 -1.54301,0.81958 -3.69967,0.86342 -0.8382,0.017 -1.59068,0.0109 -1.67217,-0.0136 z m -10.877487,11.90701 c 0.668413,-0.458 0.905681,-1.25011 0.588941,-1.96616 -0.307111,-0.69427 -1.013669,-1.03189 -1.836473,-0.87753 -0.368415,0.0691 -0.876351,0.49729 -1.03209,0.87003 -0.241459,0.57789 -0.07111,1.42538 0.365954,1.82062 0.491255,0.44424 1.38444,0.51567 1.913668,0.15304 z M 81.064669,154.3057 c 0.140999,-0.141 0.218171,-0.34328 0.26064,-0.68319 0.08403,-0.67257 0.0062,-2.8469 -0.109497,-3.06009 -0.05252,-0.0968 -0.805386,-1.0302 -1.673034,-2.07433 -0.867647,-1.04413 -1.612768,-1.98662 -1.655826,-2.09443 -0.09621,-0.2409 -0.10198,-2.13323 -0.007,-2.28297 0.05168,-0.0814 0.361285,-0.10245 1.247536,-0.0847 l 1.178804,0.0237 0.04233,1.22767 0.04233,1.22766 0.415142,0.0263 c 0.274789,0.0174 0.438942,-0.0112 0.485537,-0.0847 0.09562,-0.15078 0.08816,-2.22941 -0.0095,-2.651 -0.142113,-0.61336 -0.215927,-0.635 -2.165817,-0.635 -1.697296,0 -1.724915,0.003 -1.95912,0.20415 l -0.237555,0.20414 -0.02661,1.43654 c -0.02079,1.12242 5.93e-4,1.49896 0.09762,1.72202 0.06833,0.15702 0.852581,1.16178 1.74278,2.23282 l 1.618543,1.94733 -0.02283,1.35467 -0.02283,1.35466 -1.204307,0.0235 c -1.426877,0.0278 -1.284824,0.19497 -1.315099,-1.54748 l -0.02059,-1.18533 H 77.343 76.919666 v 1.59497 1.59496 l 0.237555,0.2042 c 0.234354,0.20145 0.260922,0.2042 1.972348,0.2042 1.711322,0 1.737504,-0.003 1.9351,-0.2003 z m 2.617168,0.0521 c 0.02342,-0.0815 0.107197,-0.58632 0.186172,-1.12184 0.07897,-0.53551 0.17802,-1.04034 0.220102,-1.12183 0.06668,-0.12911 0.212446,-0.14817 1.133682,-0.14817 1.245454,0 1.141817,-0.0975 1.349433,1.27 0.210002,1.38326 0.153635,1.27 0.632057,1.27 0.229197,0 0.435673,-0.0307 0.458835,-0.0681 0.03786,-0.0613 -1.843067,-10.91682 -1.935646,-11.17137 -0.02437,-0.067 -0.207784,-0.10583 -0.500088,-0.10583 -0.435499,0 -0.464306,0.0132 -0.509517,0.23283 -0.193984,0.94254 -1.912868,10.74215 -1.912868,10.90555 0,0.19152 0.03114,0.20695 0.417628,0.20695 0.325075,0 0.427065,-0.0328 0.46021,-0.14816 z m 0.561496,-3.40696 c 0,-0.19819 0.835878,-5.40593 0.895929,-5.58187 0.02441,-0.0715 0.07068,-0.0886 0.114546,-0.0423 0.06862,0.0724 0.940432,5.31877 0.937976,5.64449 -0.001,0.13246 -0.104353,0.14817 -0.974785,0.14817 -0.91553,0 -0.973666,-0.0101 -0.973666,-0.16846 z m 7.027333,-1.69421 0.04233,-5.207 0.846667,-0.0423 0.846666,-0.0423 v -0.381 -0.381 l -2.227196,-0.0226 -2.227197,-0.0226 0.02586,0.40358 0.02586,0.40358 0.801449,0.0246 c 0.510136,0.0156 0.825108,0.0618 0.866537,0.127 0.0358,0.0563 0.06567,2.41898 0.06638,5.25034 l 0.0013,5.14792 0.4445,-0.0256 0.4445,-0.0256 z m 28.375314,5.15107 c 0.43821,-0.13129 0.99096,-0.61723 1.18299,-1.04001 0.1448,-0.31878 0.15598,-0.64377 0.15598,-4.53439 0,-4.67679 0.014,-4.55638 -0.60009,-5.1399 -0.47911,-0.45521 -0.84265,-0.53277 -2.49717,-0.53277 h -1.47103 v 5.67267 5.67266 h 1.45068 c 0.85608,0 1.5851,-0.0403 1.77864,-0.0983 z m -2.25626,-0.84675 c -0.0238,-0.0623 -0.0335,-2.22787 -0.0214,-4.81232 l 0.022,-4.699 0.89365,-0.0239 c 0.81378,-0.0217 0.91971,-0.006 1.18533,0.17102 0.59529,0.39773 0.58776,0.33829 0.58776,4.63651 0,3.50044 -0.0135,3.87885 -0.14804,4.14265 -0.27232,0.53405 -0.51187,0.63749 -1.55072,0.66967 -0.71514,0.0221 -0.93506,0.003 -0.96859,-0.0847 z m 5.92579,0.86275 c 0.028,-0.0452 0.12931,-0.56912 0.22521,-1.16416 0.0959,-0.59505 0.21329,-1.12953 0.26086,-1.18774 0.0969,-0.11856 1.97871,-0.152 2.15754,-0.0383 0.0562,0.0357 0.19065,0.59709 0.29885,1.24754 l 0.19672,1.18263 0.44199,0.0256 c 0.41296,0.0239 0.44198,0.0127 0.44198,-0.17042 0,-0.17101 -1.78912,-10.46516 -1.90618,-10.96767 -0.0393,-0.16863 -0.097,-0.1905 -0.50272,-0.1905 -0.36274,0 -0.46784,0.0309 -0.50386,0.14817 -0.11263,0.3667 -1.98353,11.06725 -1.94572,11.12843 0.0601,0.0973 0.774,0.0857 0.83533,-0.0135 z m 0.60914,-3.3679 c -0.0576,-0.098 0.86677,-5.63579 0.95559,-5.72461 0.0481,-0.0481 0.0965,2e-5 0.12521,0.12436 0.14532,0.62928 0.88715,5.52148 0.84708,5.58631 -0.0571,0.0924 -1.87403,0.10551 -1.92788,0.0139 z m 7.39716,0.99483 0.0462,-2.413 0.32358,-0.97367 c 0.66848,-2.01143 1.64603,-5.37888 1.58065,-5.44495 -0.0373,-0.0377 -0.25353,-0.0568 -0.48042,-0.0423 l -0.41251,0.0263 -0.72547,2.66139 c -0.39901,1.46377 -0.76889,2.67587 -0.82195,2.69356 -0.11006,0.0367 -0.0713,0.16013 -0.93616,-2.98428 l -0.65202,-2.37067 -0.41397,-0.0263 c -0.22769,-0.0145 -0.44447,0.005 -0.48173,0.0423 -0.0629,0.0637 0.79336,3.03172 1.60447,5.56157 l 0.34957,1.09029 v 2.2611 c 0,1.24361 0.0271,2.28822 0.0602,2.32135 0.0331,0.0331 0.25221,0.049 0.48683,0.0353 l 0.42658,-0.025 z m -9.31868,-10.41322 c 0.18172,-0.0927 0.43737,-0.30881 0.56813,-0.48024 0.20935,-0.27447 0.23774,-0.38403 0.23774,-0.91754 0,-0.53351 -0.0284,-0.64306 -0.23774,-0.91754 -0.72425,-0.94953 -2.16996,-0.82013 -2.68324,0.24017 -0.64388,1.33006 0.79961,2.74627 2.11511,2.07515 z m -19.32361,-9.15504 c 0.75535,-0.36566 1.07022,-1.29616 0.69846,-2.06411 -0.68095,-1.40665 -2.81724,-1.04062 -2.94539,0.50466 -0.0457,0.55097 0.0812,0.96309 0.3862,1.25406 0.54098,0.51614 1.20145,0.62454 1.86073,0.30539 z m 7.36468,-0.12807 c 0.41158,-0.32884 0.61484,-0.736 0.615,-1.23199 2.5e-4,-0.69918 -0.25811,-1.12107 -0.88248,-1.44118 -0.24927,-0.1278 -0.44363,-0.16112 -0.77807,-0.13338 -1.21817,0.10102 -1.86452,1.41111 -1.1952,2.42253 0.47932,0.72429 1.57898,0.91276 2.24075,0.38402 z"
         id="path465"
         inkscape:connector-curvature="0" />
      <path
         style="fill:#959ad9;stroke-width:0.08466667"
         d="m 84.240705,184.71084 c -1.170769,-2.0603 -20.358469,-35.28268 -20.537797,-35.56 l -0.205311,-0.3175 0.20526,-0.3175 c 0.178436,-0.27601 19.348661,-33.46831 20.537691,-35.56 l 0.445194,-0.78317 h 21.147588 21.14759 l 0.4452,0.78317 c 1.18903,2.09169 20.35925,35.28399 20.53769,35.56 l 0.20526,0.3175 -0.20531,0.3175 c -0.17933,0.27732 -19.36703,33.4997 -20.5378,35.56 l -0.44504,0.78317 H 105.83333 84.685742 Z m 25.783085,-17.31392 c 0.91818,-0.63749 0.94182,-1.98532 0.0462,-2.63412 -0.63386,-0.45917 -1.41388,-0.42456 -1.99841,0.0887 -0.90814,0.79735 -0.73888,2.10495 0.34411,2.65845 0.54089,0.27645 1.10421,0.23686 1.60812,-0.113 z m 6.67036,-2.99001 c 0.39795,-0.11051 0.89626,-0.53916 1.04746,-0.90103 0.14902,-0.35666 0.14637,-1.07307 -0.005,-1.36291 -0.25427,-0.48671 -0.94831,-0.94899 -1.42301,-0.94783 -0.63444,0.002 -1.25685,0.39974 -1.51574,0.9697 -0.40323,0.88769 0.044,1.90113 0.98385,2.22968 0.33459,0.11695 0.52658,0.11956 0.91248,0.0124 z m -14.88941,-4.8723 c 0.11961,-0.0459 0.13406,-0.50068 0.13522,-4.2545 6.8e-4,-2.31171 0.0351,-4.25656 0.0765,-4.3219 0.0585,-0.0923 0.21182,-0.10735 0.68839,-0.0674 0.83984,0.0704 1.4262,0.36638 1.88556,0.95177 0.19465,0.24805 1.19211,2.00573 2.21658,3.90595 1.02447,1.90022 1.94666,3.54101 2.04932,3.64621 l 0.18665,0.19125 3.49635,-0.001 c 1.92299,-6.8e-4 3.54772,-0.0339 3.61051,-0.0737 0.0628,-0.0398 0.10089,-0.12948 0.0847,-0.19932 -0.0831,-0.35782 -3.28866,-6.39421 -3.65609,-6.88484 -0.84592,-1.12957 -1.29319,-1.54032 -2.11441,-1.94177 -0.86353,-0.42213 -0.89395,-0.34769 0.31381,-0.76807 1.60691,-0.55931 2.99359,-1.93237 3.51255,-3.47805 0.38431,-1.14462 0.44188,-2.73524 0.14051,-3.88267 -0.39314,-1.49689 -1.44177,-2.7957 -2.76448,-3.42401 -1.54449,-0.73367 -2.99475,-0.84876 -10.71651,-0.85046 -4.827956,-0.001 -5.44862,0.0136 -5.566833,0.13185 -0.119521,0.11952 -0.133048,1.19926 -0.133048,10.61962 0,9.42036 0.01353,10.5001 0.133048,10.61962 0.116071,0.11607 0.525696,0.13304 3.210408,0.13304 1.692545,0 3.137625,-0.0231 3.211285,-0.0514 z m 0.18532,-12.8672 c -0.0795,-0.20718 -0.0581,-3.95772 0.0233,-4.08619 0.11455,-0.18074 3.95676,-0.0926 4.56584,0.10469 0.93309,0.30232 1.43895,1.08314 1.34843,2.08142 -0.0496,0.54689 -0.19374,0.87235 -0.53952,1.21813 -0.34945,0.34945 -0.58902,0.44973 -1.53487,0.64248 -1.12718,0.22971 -3.77979,0.25681 -3.86319,0.0395 z m -10.888728,12.19517 c 0.251343,-0.12839 0.614268,-0.5068 0.763607,-0.79618 0.173277,-0.33576 0.138714,-1.01579 -0.0723,-1.42247 -0.610622,-1.17684 -2.349649,-1.11559 -2.902833,0.10224 -0.623221,1.37202 0.870464,2.80146 2.211522,2.11641 z m -10.254728,-4.36576 c 0.463639,-0.16162 0.518062,-0.38746 0.518062,-2.14982 0,-1.20099 -0.02878,-1.63039 -0.121252,-1.80921 -0.06669,-0.12897 -0.847739,-1.10641 -1.735666,-2.17209 l -1.614415,-1.93761 v -1.15899 c 0,-0.97873 0.02083,-1.16697 0.133925,-1.21037 0.07366,-0.0283 0.583343,-0.0514 1.132632,-0.0514 0.722785,0 1.024276,0.0308 1.091252,0.11151 0.05438,0.0655 0.102298,0.59792 0.116201,1.29116 l 0.02366,1.17966 0.286882,0.0274 c 0.157786,0.0151 0.376861,0.005 0.486834,-0.0228 l 0.199951,-0.0502 v -1.39959 c 0,-2.0906 0.02412,-2.06852 -2.25902,-2.06852 -1.593234,0 -1.949968,0.0723 -2.157998,0.43734 -0.125459,0.22014 -0.163812,2.72421 -0.04806,3.13774 0.03553,0.12691 0.7835,1.10208 1.662167,2.16705 0.878668,1.06497 1.640178,2.0159 1.692244,2.11319 0.133329,0.24913 0.127409,2.49208 -0.0069,2.62642 -0.114989,0.11499 -2.071347,0.14394 -2.245599,0.0332 -0.07254,-0.0461 -0.110559,-0.45757 -0.127,-1.37454 l -0.02347,-1.30876 -0.48418,-0.0253 c -0.456796,-0.0239 -0.487227,-0.0132 -0.538063,0.18937 -0.09618,0.38321 0.0015,2.86661 0.121205,3.08133 0.20296,0.36408 0.530923,0.43073 2.137237,0.4343 0.881325,0.002 1.600193,-0.035 1.759405,-0.0905 z m 2.791542,-0.0181 c 0.05109,-0.0616 0.172673,-0.60284 0.270196,-1.20285 0.09752,-0.60002 0.195991,-1.12116 0.218816,-1.15809 0.0542,-0.0877 2.125486,-0.0877 2.179682,0 0.02283,0.0369 0.121293,0.55807 0.218816,1.15809 0.09752,0.60001 0.219112,1.14129 0.270196,1.20285 0.138944,0.16741 0.826255,0.14633 0.892919,-0.0274 0.05533,-0.14419 -1.786232,-10.84698 -1.924512,-11.18486 -0.0659,-0.16102 -0.142145,-0.1905 -0.492745,-0.1905 -0.228842,0 -0.453897,0.0474 -0.502039,0.10584 -0.112648,0.13662 -2.076531,11.13327 -2.01631,11.29021 0.05925,0.1544 0.758007,0.1597 0.884981,0.007 z m 0.670539,-3.46526 c -0.04367,-0.12347 0.81563,-5.46003 0.891381,-5.53578 0.02806,-0.0281 0.07229,0.0392 0.09827,0.14946 0.125409,0.53218 0.872017,5.37186 0.837358,5.42794 -0.07128,0.11533 -1.785309,0.0763 -1.827011,-0.0416 z m 6.959002,3.4134 c 0.05762,-0.10766 0.08765,-1.90282 0.08765,-5.24027 0,-4.55101 0.01386,-5.08183 0.133925,-5.1279 0.07366,-0.0283 0.45665,-0.0514 0.851092,-0.0514 h 0.717166 l -0.02559,-0.4445 -0.02559,-0.4445 -2.074333,-0.0238 c -1.140883,-0.0131 -2.162095,-0.002 -2.26936,0.0239 -0.174264,0.0427 -0.192291,0.0903 -0.169334,0.44718 l 0.02569,0.39941 0.677334,0.0213 c 0.372533,0.0117 0.763058,0.041 0.867833,0.0651 l 0.1905,0.0438 v 5.19833 c 0,4.07945 0.02278,5.20753 0.105833,5.24104 0.05821,0.0235 0.266418,0.0457 0.462688,0.0494 0.27052,0.005 0.378058,-0.0329 0.4445,-0.15709 z m 28.196453,0.0713 c 0.58601,-0.12568 1.0909,-0.52459 1.37636,-1.08747 l 0.23283,-0.4591 -8.5e-4,-4.11232 -8.4e-4,-4.11232 -0.19743,-0.42395 c -0.25242,-0.54206 -0.69741,-0.93099 -1.25442,-1.09641 -0.44482,-0.1321 -2.85816,-0.19273 -3.15391,-0.0792 -0.12023,0.0462 -0.13388,0.62801 -0.13388,5.70794 0,4.44602 0.0227,5.66569 0.10583,5.69926 0.20667,0.0834 2.60209,0.0546 3.02631,-0.0364 z m -1.98562,-0.91784 c -0.0268,-0.0434 -0.0488,-2.17959 -0.0488,-4.74703 0,-2.56744 0.022,-4.70361 0.0488,-4.74704 0.0605,-0.0979 1.05008,-0.097 1.56025,0.001 0.27103,0.0523 0.45725,0.15903 0.65616,0.37607 l 0.27773,0.30306 v 4.0623 4.0623 l -0.25721,0.29295 c -0.18964,0.21598 -0.3687,0.31686 -0.6815,0.38394 -0.5217,0.11189 -1.48909,0.11937 -1.55543,0.012 z m 5.85785,0.90447 c 0.0453,-0.0582 0.14706,-0.52494 0.22604,-1.03717 0.079,-0.51223 0.16387,-1.03611 0.18865,-1.16417 l 0.0451,-0.23283 h 1.09233 c 1.06274,0 1.09356,0.005 1.13819,0.1905 0.0252,0.10478 0.11901,0.6441 0.20842,1.1985 0.0929,0.57638 0.20994,1.03806 0.27324,1.0782 0.18278,0.11593 0.83066,0.0859 0.87927,-0.0408 0.0415,-0.10808 -1.8825,-11.20087 -1.96621,-11.33632 -0.022,-0.0356 -0.24827,-0.0648 -0.50279,-0.0648 -0.40364,0 -0.47131,0.0243 -0.52964,0.1905 -0.1451,0.41329 -1.98638,11.05107 -1.93568,11.18318 0.0659,0.17176 0.75533,0.19921 0.88312,0.0352 z m 0.66128,-3.4448 c -0.0463,-0.075 0.78337,-5.42671 0.85293,-5.50165 0.018,-0.0194 0.055,-0.013 0.0823,0.0143 0.0878,0.0878 0.9057,5.2976 0.85317,5.43449 -0.0413,0.10759 -0.20789,0.1322 -0.89505,0.1322 -0.46438,0 -0.86639,-0.0357 -0.89334,-0.0793 z m 7.32393,1.17996 c 0.0433,-2.19494 0.0583,-2.36713 0.26208,-3.00566 0.80648,-2.52713 1.78089,-5.89363 1.73812,-6.00509 -0.0559,-0.14575 -0.68527,-0.18826 -0.88761,-0.0599 -0.0613,0.0389 -0.43165,1.24365 -0.82294,2.67725 -0.3913,1.43361 -0.73165,2.62676 -0.75634,2.65145 -0.0247,0.0247 -0.0608,0.029 -0.0801,0.01 -0.0194,-0.0194 -0.35836,-1.21171 -0.7533,-2.64958 -0.39494,-1.43786 -0.76962,-2.64695 -0.83261,-2.68687 -0.20733,-0.13138 -0.83434,-0.0886 -0.89168,0.0608 -0.0555,0.14454 0.701,2.76968 1.48569,5.15571 l 0.47335,1.43933 0.0252,2.286 c 0.0139,1.2573 0.0428,2.33564 0.0643,2.3963 0.027,0.0764 0.17603,0.10241 0.48449,0.0847 l 0.44544,-0.0256 z m -9.11229,-10.64528 c 0.41582,-0.29293 0.72671,-0.86407 0.72671,-1.33505 0,-0.76897 -0.67029,-1.51353 -1.45799,-1.61954 -0.58545,-0.0788 -1.25158,0.25998 -1.56593,0.79639 -0.87022,1.48491 0.89663,3.14484 2.29721,2.1582 z m -19.52402,-9.0479 c 0.57598,-0.28702 0.88625,-0.78377 0.88625,-1.41888 0,-0.52036 -0.16014,-0.86475 -0.56908,-1.22381 -0.59651,-0.52374 -1.41309,-0.54041 -2.06629,-0.0422 -0.79063,0.60305 -0.7833,1.91003 0.0141,2.51825 0.57164,0.43602 1.09379,0.48616 1.73499,0.16664 z m 7.33852,-0.0972 c 1.16411,-0.80823 0.83549,-2.54019 -0.55132,-2.90575 -1.10013,-0.28998 -2.20028,0.78219 -1.94843,1.89887 0.1094,0.48505 0.42494,0.88137 0.89163,1.11989 0.54089,0.27644 1.10421,0.23686 1.60812,-0.11301 z"
         id="path463"
         inkscape:connector-curvature="0" />
      <path
         style="fill:#6693cc;stroke-width:0.08466667"
         d="m 84.240705,184.71084 c -1.170769,-2.0603 -20.358469,-35.28268 -20.537797,-35.56 l -0.205311,-0.3175 0.20526,-0.3175 c 0.178436,-0.27601 19.348661,-33.46831 20.537691,-35.56 l 0.445194,-0.78317 h 21.147588 21.14759 l 0.4452,0.78317 c 1.18903,2.09169 20.35925,35.28399 20.53769,35.56 l 0.20526,0.3175 -0.20531,0.3175 c -0.17933,0.27732 -19.36703,33.4997 -20.5378,35.56 l -0.44504,0.78317 H 105.83333 84.685742 Z m 25.783085,-17.31392 c 0.91818,-0.63749 0.94182,-1.98532 0.0462,-2.63412 -0.63386,-0.45917 -1.41388,-0.42456 -1.99841,0.0887 -0.90814,0.79735 -0.73888,2.10495 0.34411,2.65845 0.54089,0.27645 1.10421,0.23686 1.60812,-0.113 z m -7.13917,-0.11666 c 0.82278,-0.58587 0.74163,-2.00408 -0.14335,-2.5053 -0.71084,-0.4026 -1.59114,-0.20297 -2.03962,0.46253 -0.47176,0.70005 -0.22326,1.76001 0.50531,2.15543 0.47683,0.25879 1.22673,0.20843 1.67766,-0.11266 z m 13.80953,-2.87335 c 0.39795,-0.11051 0.89626,-0.53916 1.04746,-0.90103 0.14902,-0.35666 0.14637,-1.07307 -0.005,-1.36291 -0.25427,-0.48671 -0.94831,-0.94899 -1.42301,-0.94783 -0.63444,0.002 -1.25685,0.39974 -1.51574,0.9697 -0.40323,0.88769 0.044,1.90113 0.98385,2.22968 0.33459,0.11695 0.52658,0.11956 0.91248,0.0124 z m -20.302877,-0.27319 c 0.876247,-0.49628 0.976392,-1.86832 0.180311,-2.47036 -0.928166,-0.70192 -2.246206,-0.20597 -2.458384,0.92503 -0.114637,0.61107 0.281382,1.37816 0.836268,1.61986 0.409307,0.17828 1.054301,0.14494 1.441805,-0.0745 z m 5.413467,-4.59911 c 0.11961,-0.0459 0.13406,-0.50068 0.13522,-4.2545 6.8e-4,-2.31171 0.0351,-4.25656 0.0765,-4.3219 0.0585,-0.0923 0.21182,-0.10735 0.68839,-0.0674 0.83984,0.0704 1.4262,0.36638 1.88556,0.95177 0.19465,0.24805 1.19211,2.00573 2.21658,3.90595 1.02447,1.90022 1.94666,3.54101 2.04932,3.64621 l 0.18665,0.19125 3.49635,-0.001 c 1.92299,-6.8e-4 3.54772,-0.0339 3.61051,-0.0737 0.0628,-0.0398 0.10089,-0.12948 0.0847,-0.19932 -0.0831,-0.35782 -3.28866,-6.39421 -3.65609,-6.88484 -0.84592,-1.12957 -1.29319,-1.54032 -2.11441,-1.94177 -0.86353,-0.42213 -0.89395,-0.34769 0.31381,-0.76807 1.60691,-0.55931 2.99359,-1.93237 3.51255,-3.47805 0.38431,-1.14462 0.44188,-2.73524 0.14051,-3.88267 -0.39314,-1.49689 -1.44177,-2.7957 -2.76448,-3.42401 -1.54449,-0.73367 -2.99475,-0.84876 -10.71651,-0.85046 -4.827956,-0.001 -5.44862,0.0136 -5.566833,0.13185 -0.119521,0.11952 -0.133048,1.19926 -0.133048,10.61962 0,9.42036 0.01353,10.5001 0.133048,10.61962 0.116071,0.11607 0.525696,0.13304 3.210408,0.13304 1.692545,0 3.137625,-0.0231 3.211285,-0.0514 z m 0.18532,-12.8672 c -0.0795,-0.20718 -0.0581,-3.95772 0.0233,-4.08619 0.11455,-0.18074 3.95676,-0.0926 4.56584,0.10469 0.93309,0.30232 1.43895,1.08314 1.34843,2.08142 -0.0496,0.54689 -0.19374,0.87235 -0.53952,1.21813 -0.34945,0.34945 -0.58902,0.44973 -1.53487,0.64248 -1.12718,0.22971 -3.77979,0.25681 -3.86319,0.0395 z m -10.888728,12.19517 c 0.251343,-0.12839 0.614268,-0.5068 0.763607,-0.79618 0.173277,-0.33576 0.138714,-1.01579 -0.0723,-1.42247 -0.610622,-1.17684 -2.349649,-1.11559 -2.902833,0.10224 -0.623221,1.37202 0.870464,2.80146 2.211522,2.11641 z m 30.994628,-0.14642 c 0.81111,-0.54661 0.95889,-1.57828 0.32886,-2.29583 -0.3378,-0.38475 -0.6585,-0.5026 -1.251,-0.45974 -0.58947,0.0426 -0.9598,0.27365 -1.20307,0.75051 -0.32526,0.63755 -0.13493,1.54825 0.40216,1.92437 0.33148,0.23212 0.42854,0.25898 0.96307,0.26652 0.36079,0.005 0.54268,-0.0394 0.75998,-0.18583 z m -41.249356,-4.21934 c 0.463639,-0.16162 0.518062,-0.38746 0.518062,-2.14982 0,-1.20099 -0.02878,-1.63039 -0.121252,-1.80921 -0.06669,-0.12897 -0.847739,-1.10641 -1.735666,-2.17209 l -1.614415,-1.93761 v -1.15899 c 0,-0.97873 0.02083,-1.16697 0.133925,-1.21037 0.07366,-0.0283 0.583343,-0.0514 1.132632,-0.0514 0.722785,0 1.024276,0.0308 1.091252,0.11151 0.05438,0.0655 0.102298,0.59792 0.116201,1.29116 l 0.02366,1.17966 0.286882,0.0274 c 0.157786,0.0151 0.376861,0.005 0.486834,-0.0228 l 0.199951,-0.0502 v -1.39959 c 0,-2.0906 0.02412,-2.06852 -2.25902,-2.06852 -1.593234,0 -1.949968,0.0723 -2.157998,0.43734 -0.125459,0.22014 -0.163812,2.72421 -0.04806,3.13774 0.03553,0.12691 0.7835,1.10208 1.662167,2.16705 0.878668,1.06497 1.640178,2.0159 1.692244,2.11319 0.133329,0.24913 0.127409,2.49208 -0.0069,2.62642 -0.114989,0.11499 -2.071347,0.14394 -2.245599,0.0332 -0.07254,-0.0461 -0.110559,-0.45757 -0.127,-1.37454 l -0.02347,-1.30876 -0.48418,-0.0253 c -0.456796,-0.0239 -0.487227,-0.0132 -0.538063,0.18937 -0.09618,0.38321 0.0015,2.86661 0.121205,3.08133 0.20296,0.36408 0.530923,0.43073 2.137237,0.4343 0.881325,0.002 1.600193,-0.035 1.759405,-0.0905 z m 2.791542,-0.0181 c 0.05109,-0.0616 0.172673,-0.60284 0.270196,-1.20285 0.09752,-0.60002 0.195991,-1.12116 0.218816,-1.15809 0.0542,-0.0877 2.125486,-0.0877 2.179682,0 0.02283,0.0369 0.121293,0.55807 0.218816,1.15809 0.09752,0.60001 0.219112,1.14129 0.270196,1.20285 0.138944,0.16741 0.826255,0.14633 0.892919,-0.0274 0.05533,-0.14419 -1.786232,-10.84698 -1.924512,-11.18486 -0.0659,-0.16102 -0.142145,-0.1905 -0.492745,-0.1905 -0.228842,0 -0.453897,0.0474 -0.502039,0.10584 -0.112648,0.13662 -2.076531,11.13327 -2.01631,11.29021 0.05925,0.1544 0.758007,0.1597 0.884981,0.007 z m 0.670539,-3.46526 c -0.04367,-0.12347 0.81563,-5.46003 0.891381,-5.53578 0.02806,-0.0281 0.07229,0.0392 0.09827,0.14946 0.125409,0.53218 0.872017,5.37186 0.837358,5.42794 -0.07128,0.11533 -1.785309,0.0763 -1.827011,-0.0416 z m 6.959002,3.4134 c 0.05762,-0.10766 0.08765,-1.90282 0.08765,-5.24027 0,-4.55101 0.01386,-5.08183 0.133925,-5.1279 0.07366,-0.0283 0.45665,-0.0514 0.851092,-0.0514 h 0.717166 l -0.02559,-0.4445 -0.02559,-0.4445 -2.074333,-0.0238 c -1.140883,-0.0131 -2.162095,-0.002 -2.26936,0.0239 -0.174264,0.0427 -0.192291,0.0903 -0.169334,0.44718 l 0.02569,0.39941 0.677334,0.0213 c 0.372533,0.0117 0.763058,0.041 0.867833,0.0651 l 0.1905,0.0438 v 5.19833 c 0,4.07945 0.02278,5.20753 0.105833,5.24104 0.05821,0.0235 0.266418,0.0457 0.462688,0.0494 0.27052,0.005 0.378058,-0.0329 0.4445,-0.15709 z m 28.196453,0.0713 c 0.58601,-0.12568 1.0909,-0.52459 1.37636,-1.08747 l 0.23283,-0.4591 -8.5e-4,-4.11232 -8.4e-4,-4.11232 -0.19743,-0.42395 c -0.25242,-0.54206 -0.69741,-0.93099 -1.25442,-1.09641 -0.44482,-0.1321 -2.85816,-0.19273 -3.15391,-0.0792 -0.12023,0.0462 -0.13388,0.62801 -0.13388,5.70794 0,4.44602 0.0227,5.66569 0.10583,5.69926 0.20667,0.0834 2.60209,0.0546 3.02631,-0.0364 z m -1.98562,-0.91784 c -0.0268,-0.0434 -0.0488,-2.17959 -0.0488,-4.74703 0,-2.56744 0.022,-4.70361 0.0488,-4.74704 0.0605,-0.0979 1.05008,-0.097 1.56025,0.001 0.27103,0.0523 0.45725,0.15903 0.65616,0.37607 l 0.27773,0.30306 v 4.0623 4.0623 l -0.25721,0.29295 c -0.18964,0.21598 -0.3687,0.31686 -0.6815,0.38394 -0.5217,0.11189 -1.48909,0.11937 -1.55543,0.012 z m 5.85785,0.90447 c 0.0453,-0.0582 0.14706,-0.52494 0.22604,-1.03717 0.079,-0.51223 0.16387,-1.03611 0.18865,-1.16417 l 0.0451,-0.23283 h 1.09233 c 1.06274,0 1.09356,0.005 1.13819,0.1905 0.0252,0.10478 0.11901,0.6441 0.20842,1.1985 0.0929,0.57638 0.20994,1.03806 0.27324,1.0782 0.18278,0.11593 0.83066,0.0859 0.87927,-0.0408 0.0415,-0.10808 -1.8825,-11.20087 -1.96621,-11.33632 -0.022,-0.0356 -0.24827,-0.0648 -0.50279,-0.0648 -0.40364,0 -0.47131,0.0243 -0.52964,0.1905 -0.1451,0.41329 -1.98638,11.05107 -1.93568,11.18318 0.0659,0.17176 0.75533,0.19921 0.88312,0.0352 z m 0.66128,-3.4448 c -0.0463,-0.075 0.78337,-5.42671 0.85293,-5.50165 0.018,-0.0194 0.055,-0.013 0.0823,0.0143 0.0878,0.0878 0.9057,5.2976 0.85317,5.43449 -0.0413,0.10759 -0.20789,0.1322 -0.89505,0.1322 -0.46438,0 -0.86639,-0.0357 -0.89334,-0.0793 z m 7.32393,1.17996 c 0.0433,-2.19494 0.0583,-2.36713 0.26208,-3.00566 0.80648,-2.52713 1.78089,-5.89363 1.73812,-6.00509 -0.0559,-0.14575 -0.68527,-0.18826 -0.88761,-0.0599 -0.0613,0.0389 -0.43165,1.24365 -0.82294,2.67725 -0.3913,1.43361 -0.73165,2.62676 -0.75634,2.65145 -0.0247,0.0247 -0.0608,0.029 -0.0801,0.01 -0.0194,-0.0194 -0.35836,-1.21171 -0.7533,-2.64958 -0.39494,-1.43786 -0.76962,-2.64695 -0.83261,-2.68687 -0.20733,-0.13138 -0.83434,-0.0886 -0.89168,0.0608 -0.0555,0.14454 0.701,2.76968 1.48569,5.15571 l 0.47335,1.43933 0.0252,2.286 c 0.0139,1.2573 0.0428,2.33564 0.0643,2.3963 0.027,0.0764 0.17603,0.10241 0.48449,0.0847 l 0.44544,-0.0256 z m -9.11229,-10.64528 c 0.41582,-0.29293 0.72671,-0.86407 0.72671,-1.33505 0,-0.76897 -0.67029,-1.51353 -1.45799,-1.61954 -0.58545,-0.0788 -1.25158,0.25998 -1.56593,0.79639 -0.87022,1.48491 0.89663,3.14484 2.29721,2.1582 z m -30.955979,-0.095 c 0.800217,-0.56981 0.802186,-1.90885 0.0036,-2.47746 -0.327814,-0.23342 -1.128213,-0.31783 -1.510873,-0.15933 -0.350946,0.14537 -0.736293,0.60804 -0.846119,1.0159 -0.170231,0.63219 0.09138,1.27809 0.679387,1.67734 0.397618,0.26998 1.256196,0.24102 1.673963,-0.0564 z m 5.133159,-6.39639 c 1.1347,-0.66498 0.893659,-2.4185 -0.379575,-2.76135 -1.095709,-0.29504 -2.153981,0.76323 -1.858937,1.85894 0.258266,0.95912 1.374137,1.40896 2.238512,0.90241 z m 20.47741,0.0868 c 1.30281,-0.55743 1.16014,-2.48234 -0.21135,-2.85165 -0.38681,-0.10415 -0.74763,-0.0457 -1.1672,0.18916 -1.01907,0.57038 -0.95847,2.11499 0.10352,2.63844 0.34193,0.16853 0.91221,0.17929 1.27503,0.024 z m -14.17861,-2.64328 c 0.57598,-0.28702 0.88625,-0.78377 0.88625,-1.41888 0,-0.52036 -0.16014,-0.86475 -0.56908,-1.22381 -0.59651,-0.52374 -1.41309,-0.54041 -2.06629,-0.0422 -0.79063,0.60305 -0.7833,1.91003 0.0141,2.51825 0.57164,0.43602 1.09379,0.48616 1.73499,0.16664 z m 7.33852,-0.0972 c 1.16411,-0.80823 0.83549,-2.54019 -0.55132,-2.90575 -1.10013,-0.28998 -2.20028,0.78219 -1.94843,1.89887 0.1094,0.48505 0.42494,0.88137 0.89163,1.11989 0.54089,0.27644 1.10421,0.23686 1.60812,-0.11301 z"
         id="path461"
         inkscape:connector-curvature="0" />
      <path
         style="fill:#467bc1;stroke-width:0.08466667"
         d="m 84.656083,185.45184 c -0.0058,-0.0234 -0.01535,-0.0749 -0.02117,-0.11446 -0.01814,-0.12337 -20.913311,-36.29077 -20.983674,-36.3206 -0.08653,-0.0367 -0.08653,-0.33021 0,-0.36689 0.09004,-0.0382 20.973091,-36.22391 20.973091,-36.34176 0,-0.0675 5.841512,-0.0931 21.209,-0.0931 15.33539,0 21.209,0.0257 21.209,0.0929 0,0.11764 20.88325,36.30385 20.97315,36.34199 0.0865,0.0367 0.0864,0.33022 -6e-5,0.36689 -0.09,0.0382 -20.97309,36.22391 -20.97309,36.34176 0,0.0674 -5.84867,0.099 -21.18783,0.11447 -11.653312,0.0117 -21.192599,0.002 -21.19842,-0.0212 z m 18.039147,-17.98013 c 1.03139,-0.49179 1.14594,-1.97599 0.20772,-2.6916 -0.4425,-0.33751 -1.22723,-0.38442 -1.72748,-0.10326 -0.75083,0.42199 -1.02021,1.41215 -0.59131,2.1735 0.42738,0.75868 1.29036,1.01269 2.11107,0.62136 z m 7.30858,-0.007 c 1.07574,-0.68222 1.01699,-2.26133 -0.10648,-2.8619 -0.55088,-0.29448 -1.30112,-0.24546 -1.75368,0.11458 -0.86178,0.6856 -0.92354,1.84547 -0.13791,2.58993 0.32309,0.30615 0.57474,0.39527 1.13418,0.40165 0.38088,0.004 0.54508,-0.0421 0.86389,-0.24426 z m 6.98773,-3.1288 c 1.13562,-0.58238 1.26185,-2.02885 0.24748,-2.83585 -0.43517,-0.34621 -1.21322,-0.41145 -1.73459,-0.14546 -1.19541,0.60985 -1.21107,2.32107 -0.0269,2.9456 0.46573,0.24563 1.07663,0.26004 1.51406,0.0357 z m -20.641674,-0.0806 c 0.89004,-0.47734 1.136869,-1.69699 0.492055,-2.43139 -0.357594,-0.40728 -0.702903,-0.56839 -1.218225,-0.56839 -0.781499,0 -1.431413,0.54922 -1.598234,1.35061 -0.11705,0.56229 0.254486,1.29151 0.839929,1.64852 0.344969,0.21037 1.092819,0.21069 1.484475,6.8e-4 z m 5.653074,-9.00809 0.0219,-4.29684 h 0.53448 c 0.94237,0 1.63683,0.36232 2.16266,1.12833 0.1334,0.19434 1.0332,1.82019 1.99955,3.61301 0.96635,1.79281 1.84817,3.40254 1.95958,3.57716 l 0.20258,0.3175 h 3.72414 c 3.31357,0 3.72413,-0.0145 3.72413,-0.13175 0,-0.27004 -3.29401,-6.48888 -3.78054,-7.13738 -0.76781,-1.02341 -1.34588,-1.55512 -2.04065,-1.87702 -0.33741,-0.15633 -0.61348,-0.31053 -0.61348,-0.34266 0,-0.0321 0.17955,-0.10363 0.399,-0.15888 0.61581,-0.15507 1.5354,-0.61415 2.12485,-1.06078 1.00567,-0.762 1.80687,-1.99222 2.09655,-3.21919 0.20407,-0.86435 0.18551,-2.43427 -0.0388,-3.28511 -0.45578,-1.72853 -1.6716,-3.1175 -3.22124,-3.67998 -1.55438,-0.56421 -2.5915,-0.62685 -9.86932,-0.59605 l -6.095998,0.0258 -0.02178,10.62567 c -0.01198,5.84412 -0.0035,10.67374 0.01889,10.73249 0.03198,0.084 0.75102,0.10208 3.366112,0.0847 l 3.325446,-0.0222 z m 0.0204,-10.6045 V 142.568 l 1.92617,10e-4 c 2.10671,0.001 2.67231,0.0796 3.22558,0.44575 0.4417,0.2923 0.63505,0.72374 0.67236,1.50027 0.0261,0.54389 0.001,0.68966 -0.1728,1.016 -0.4742,0.88864 -1.48231,1.18241 -4.06381,1.18422 l -1.5875,0.001 z m -11.026267,14.30462 c 1.092726,-0.45657 1.388689,-1.87327 0.562382,-2.69198 -0.361217,-0.3579 -0.700913,-0.50317 -1.176629,-0.50317 -0.448513,0 -0.992474,0.22027 -1.239774,0.50202 -0.428388,0.48807 -0.569553,1.34632 -0.304695,1.85249 0.166434,0.31807 0.631661,0.76725 0.908319,0.87699 0.320501,0.12713 0.899414,0.1103 1.250397,-0.0363 z m 31.128077,-0.15699 c 1.37072,-0.8033 0.78321,-2.92963 -0.80934,-2.92917 -0.5573,1.7e-4 -0.9481,0.18777 -1.29478,0.62156 -0.2369,0.29643 -0.26002,0.38044 -0.26002,0.94464 0,0.56421 0.0231,0.64822 0.26002,0.94465 0.34761,0.43496 0.73721,0.62139 1.29887,0.62156 0.33121,8e-5 0.55443,-0.0563 0.80525,-0.20324 z m -40.994643,-4.4462 0.276502,-0.2469 0.02781,-1.56738 c 0.02513,-1.41645 0.0117,-1.60261 -0.139441,-1.93326 -0.09199,-0.20124 -0.876025,-1.21639 -1.742307,-2.25589 L 77.978,146.45033 v -1.18162 -1.18162 l 1.121833,0.0236 1.121833,0.0236 0.04233,1.22766 0.04233,1.22767 0.526556,0.0251 c 0.498988,0.0238 0.529313,0.0142 0.57921,-0.18465 0.02896,-0.11538 0.03966,-0.80615 0.02378,-1.53504 l -0.02888,-1.32526 -0.276502,-0.24693 -0.276502,-0.24693 -1.755498,0.002 c -2.376854,0.003 -2.305831,-0.0612 -2.305831,2.0711 0,1.11845 0.02751,1.45996 0.13421,1.6663 0.07382,0.14274 0.855842,1.13417 1.737839,2.20317 l 1.60363,1.94364 -0.02334,1.28512 -0.02334,1.28513 -1.121833,0.0236 -1.121833,0.0236 v -1.30443 c 0,-1.50789 -0.0044,-1.51731 -0.691627,-1.47799 l -0.451373,0.0258 -0.02412,1.48167 c -0.01326,0.81492 -0.0022,1.57064 0.02459,1.67938 0.02679,0.10875 0.147981,0.28972 0.269314,0.40217 0.218563,0.20256 0.236941,0.20445 1.984907,0.20445 h 1.764301 z m 2.582913,0.14107 c 0.04591,-0.0582 0.150597,-0.56304 0.232633,-1.12184 0.08204,-0.5588 0.183827,-1.08267 0.226202,-1.16416 0.06649,-0.12788 0.20857,-0.14817 1.037366,-0.14817 0.66807,0 0.985281,0.0322 1.042338,0.10583 0.04511,0.0582 0.149909,0.58209 0.232888,1.16417 0.08298,0.58208 0.188752,1.10596 0.235051,1.16417 0.114996,0.14458 0.986462,0.14135 1.042184,-0.004 0.03669,-0.0956 -1.849647,-11.02062 -1.950937,-11.29915 -0.05081,-0.13971 -1.025986,-0.14438 -1.111926,-0.005 -0.09266,0.14992 -2.065291,11.25978 -2.013989,11.34279 0.06997,0.11321 0.934571,0.0842 1.02819,-0.0345 z m 0.616314,-3.556 c 0.0038,-0.23195 0.833507,-5.16029 0.875918,-5.2027 0.025,-0.025 0.06584,0.0448 0.09076,0.15504 0.05865,0.25949 0.809593,4.96358 0.809593,5.07149 0,0.0477 -0.372047,0.082 -0.889,0.082 -0.655675,0 -0.888547,-0.0278 -0.887275,-0.10583 z m 7.025608,-1.5875 0.04233,-5.207 0.846666,-0.0423 0.846667,-0.0423 v -0.46567 -0.46566 l -2.280131,-0.0226 c -2.498361,-0.0247 -2.415268,-0.0417 -2.417573,0.49248 -0.0019,0.45031 0.103037,0.50376 0.989304,0.50376 h 0.7874 v 5.11541 c 0,2.81348 0.02378,5.17737 0.05284,5.2531 0.04239,0.11048 0.155369,0.13277 0.5715,0.11276 l 0.518663,-0.0249 z m 28.627288,5.01288 c 0.55926,-0.29216 0.96016,-0.80036 1.08292,-1.37274 0.12587,-0.58692 0.12587,-7.70937 0,-8.29628 -0.12568,-0.58601 -0.5246,-1.0909 -1.08747,-1.37636 -0.45223,-0.22935 -0.4828,-0.23284 -2.04353,-0.23284 -1.36668,0 -1.59149,0.0184 -1.63582,0.13393 -0.0671,0.17498 -0.0671,11.07183 0,11.24682 0.0443,0.11554 0.26962,0.13392 1.64134,0.13392 1.57588,0 1.59394,-0.002 2.04256,-0.23645 z m -2.51111,-0.88538 c -0.0223,-0.0582 -0.0306,-2.18229 -0.0185,-4.72017 l 0.022,-4.61433 0.80433,-0.0231 c 0.93635,-0.0268 1.28404,0.10391 1.53863,0.57861 0.14332,0.26724 0.1547,0.57119 0.1547,4.12933 0,4.36046 0.007,4.30614 -0.62857,4.595 -0.41944,0.1905 -1.8051,0.23092 -1.87258,0.0546 z m 5.9623,0.93133 c 0.0387,-0.10477 0.13812,-0.6477 0.22101,-1.2065 0.0829,-0.5588 0.1932,-1.04399 0.24512,-1.0782 0.0519,-0.0342 0.52421,-0.0628 1.04955,-0.0635 0.74141,-10e-4 0.96533,0.0252 1.00063,0.11721 0.025,0.0652 0.12859,0.62716 0.23018,1.24884 l 0.1847,1.13032 0.49917,0.0258 c 0.27455,0.0142 0.52977,-0.005 0.56716,-0.0423 0.0517,-0.0518 -1.68935,-10.29761 -1.91428,-11.26526 -0.0403,-0.17315 -0.0937,-0.1905 -0.58729,-0.1905 -0.44338,0 -0.55137,0.0272 -0.58852,0.14817 -0.12328,0.40139 -1.9977,11.16026 -1.96101,11.25587 0.0279,0.0727 0.20376,0.11063 0.51287,0.11063 0.41057,0 0.47936,-0.0242 0.54071,-0.1905 z m 0.60285,-3.53166 c 0,-0.2198 0.75673,-4.91967 0.81845,-5.08317 0.0328,-0.087 0.06,-0.095 0.086,-0.0255 0.0781,0.20803 0.85217,5.15032 0.81625,5.21133 -0.0206,0.0349 -0.41614,0.0635 -0.87906,0.0635 -0.77986,0 -0.84167,-0.0122 -0.84167,-0.16616 z m 7.37248,1.26683 c 0.0485,-2.3959 0.0506,-2.4187 0.30728,-3.21734 0.75421,-2.3471 1.71742,-5.63735 1.67936,-5.73655 -0.0315,-0.0822 -0.18979,-0.10661 -0.57254,-0.0884 l -0.52895,0.0252 -0.69499,2.57046 c -0.66157,2.44682 -0.74447,2.71168 -0.82301,2.62948 -0.0185,-0.0194 -0.35248,-1.19733 -0.74209,-2.61761 l -0.70837,-2.58233 -0.52901,-0.0252 c -0.39612,-0.0189 -0.54059,0.005 -0.5751,0.0949 -0.0449,0.11702 0.86512,3.25021 1.61971,5.57662 l 0.3759,1.1589 v 2.27715 c 0,1.25244 0.027,2.30416 0.06,2.33718 0.033,0.033 0.29019,0.0489 0.5715,0.0353 l 0.51147,-0.0247 z m -9.31196,-10.44174 c 0.5311,-0.2805 0.86301,-0.83966 0.86301,-1.45393 0,-1.41915 -1.7455,-2.20485 -2.76245,-1.24345 -0.89122,0.84255 -0.69141,2.18851 0.40992,2.7613 0.38136,0.19834 1.04702,0.16977 1.48952,-0.0639 z m -31.001867,-0.0359 c 0.159672,-0.0814 0.407322,-0.29445 0.550333,-0.4734 0.236895,-0.29642 0.26002,-0.38043 0.26002,-0.94464 0,-0.5642 -0.02312,-0.64822 -0.26002,-0.94464 -0.346681,-0.4338 -0.737481,-0.6214 -1.294786,-0.62156 -1.58763,-4.2e-4 -2.177623,2.1115 -0.817635,2.92683 0.42136,0.25261 1.128313,0.27859 1.562088,0.0574 z m 5.196057,-6.42358 c 0.586843,-0.29717 0.905962,-0.80034 0.905962,-1.42847 0,-0.51247 -0.161835,-0.87586 -0.536609,-1.20492 -0.931523,-0.81788 -2.291378,-0.38245 -2.596462,0.8314 -0.175499,0.69827 0.232787,1.53579 0.887831,1.82121 0.354318,0.15438 1.015168,0.1449 1.339278,-0.0192 z m 20.71333,-0.0298 c 0.6007,-0.30645 0.90109,-0.89368 0.8309,-1.62424 -0.0455,-0.47351 -0.36328,-0.93698 -0.82982,-1.21028 -0.37148,-0.21761 -1.03665,-0.22215 -1.46679,-0.01 -0.65821,0.32465 -1.03789,1.19513 -0.81536,1.8694 0.12833,0.38885 0.5522,0.87816 0.88713,1.0241 0.38131,0.16615 1.01596,0.14385 1.39394,-0.049 z m -14.41538,-2.54775 c 0.31981,-0.12084 0.68403,-0.47594 0.8811,-0.85908 0.33639,-0.65398 0.10391,-1.53549 -0.54007,-2.04782 -0.45257,-0.36004 -1.2028,-0.40906 -1.75368,-0.11457 -1.11547,0.59629 -1.17456,2.18453 -0.10648,2.86189 0.42776,0.27128 1.05038,0.33668 1.51913,0.15958 z m 7.41449,-0.15958 c 1.07574,-0.68222 1.01699,-2.26132 -0.10648,-2.86189 -0.55088,-0.29449 -1.30112,-0.24547 -1.75368,0.11457 -0.86178,0.6856 -0.92354,1.84547 -0.13791,2.58993 0.32309,0.30615 0.57474,0.39527 1.13418,0.40165 0.38088,0.004 0.54508,-0.0421 0.86389,-0.24426 z"
         id="path459"
         inkscape:connector-curvature="0" />
      <path
         style="fill:#2064b5;stroke-width:0.08466667"
         d="m 84.684121,185.38497 c 0.03366,-0.14751 -20.942654,-36.46921 -21.030237,-36.41508 -0.03807,0.0235 -0.06922,-0.0379 -0.06922,-0.13655 0,-0.0986 0.03115,-0.16008 0.06922,-0.13655 0.08758,0.0541 21.063893,-36.26758 21.030237,-36.41508 -0.02024,-0.0887 3.92175,-0.10904 21.149209,-0.10904 17.19086,0 21.16941,0.0204 21.14921,0.10867 -0.0337,0.14725 20.94269,36.46956 21.0302,36.41547 0.0381,-0.0235 0.0693,0.0379 0.0693,0.13653 0,0.0986 -0.0311,0.16007 -0.0692,0.13655 -0.0876,-0.0541 -21.06389,36.26757 -21.03024,36.41508 0.0202,0.0887 -3.92175,0.10904 -21.14921,0.10904 -17.227459,0 -21.16945,-0.0203 -21.149209,-0.10904 z m 18.155609,-17.88522 c 0.50008,-0.29307 0.79227,-0.80802 0.79227,-1.39629 0,-1.55497 -1.72498,-2.30638 -2.83783,-1.23617 -1.455421,1.39967 0.29823,3.65646 2.04556,2.63246 z m 7.24204,-0.003 c 0.99036,-0.69757 0.99319,-2.16822 0.006,-2.86392 -1.35059,-0.95134 -3.23183,0.53034 -2.59846,2.04657 0.43301,1.0366 1.71013,1.43917 2.59295,0.81735 z m -13.585188,-3.22228 c 0.497736,-0.28644 0.797512,-0.8191 0.797512,-1.41706 0,-1.54662 -1.772362,-2.29557 -2.859569,-1.20836 -1.423025,1.42302 0.31227,3.63241 2.062057,2.62542 z m 20.471138,0.14882 c 0.59255,-0.26919 1.05667,-0.96219 1.05667,-1.57777 0,-0.36632 -0.1935,-0.83163 -0.47574,-1.14404 -0.79849,-0.88383 -2.20664,-0.73287 -2.80678,0.3009 -0.16109,0.27748 -0.1899,0.43284 -0.16749,0.90299 0.0223,0.46739 0.0716,0.63101 0.27851,0.92484 0.48297,0.68569 1.36592,0.9333 2.11483,0.59308 z m -14.95555,-4.86632 c 0.0658,-0.0792 0.10087,-1.39046 0.1162,-4.33916 l 0.022,-4.22562 0.46567,0.0247 c 0.94605,0.0502 1.43825,0.29587 1.95042,0.97352 0.16693,0.22086 1.17397,2.01067 2.23787,3.97734 1.0639,1.96667 1.97599,3.60398 2.02687,3.63847 0.0509,0.0345 1.76839,0.0535 3.81669,0.0423 3.27889,-0.0179 3.7272,-0.036 3.74934,-0.15103 0.0405,-0.21017 -3.24507,-6.48862 -3.74196,-7.15068 -0.83297,-1.10985 -1.28483,-1.53893 -1.99492,-1.89434 l -0.66275,-0.33172 0.73534,-0.26304 c 1.57632,-0.56386 2.7464,-1.60957 3.44352,-3.07753 0.38647,-0.81379 0.54364,-1.59585 0.54544,-2.71399 0.003,-1.78695 -0.49252,-3.0945 -1.59336,-4.20552 -1.10962,-1.11988 -2.33467,-1.58096 -4.72711,-1.77918 -1.5227,-0.12616 -13.006296,-0.11224 -13.134458,0.0159 -0.147572,0.14758 -0.147572,21.3239 0,21.47147 0.156321,0.15632 6.615078,0.14488 6.745238,-0.012 z m 0.0958,-14.90459 V 142.568 l 1.41817,6.8e-4 c 3.17731,0.002 3.98274,0.30395 4.26061,1.59959 0.17144,0.79942 -0.20139,1.70887 -0.83171,2.02882 -0.5948,0.30191 -1.58978,0.45393 -3.25957,0.49802 l -1.5875,0.0419 v -2.08452 z m -11.237187,14.42038 c 0.670502,-0.1862 1.240824,-0.94246 1.24466,-1.65045 0.0026,-0.48688 -0.351708,-1.15174 -0.767347,-1.43978 -0.88393,-0.61257 -2.202835,-0.21963 -2.580297,0.76875 -0.332456,0.87052 0.01685,1.78872 0.835699,2.19677 0.466781,0.23261 0.770967,0.26254 1.267285,0.12471 z m 30.837517,-0.004 c 1.31022,-0.3579 1.72924,-1.90917 0.76594,-2.83559 -0.39973,-0.38442 -0.98922,-0.58827 -1.43379,-0.49582 -1.79356,0.373 -1.90785,2.81321 -0.15646,3.34056 0.3241,0.0976 0.43819,0.0963 0.82431,-0.009 z m -40.546864,-4.68175 0.287867,-0.28787 v -1.73231 c 0,-1.67729 -0.0063,-1.74161 -0.198397,-2.02468 -0.109118,-0.16079 -0.890168,-1.12378 -1.735667,-2.13998 L 77.978,146.35501 v -1.08917 -1.08917 h 1.100666 1.100667 v 1.17497 c 0,0.91 0.02703,1.1974 0.119856,1.27444 0.07069,0.0587 0.322487,0.089 0.613834,0.0739 l 0.493976,-0.0256 0.0231,-1.5517 0.0231,-1.5517 -0.289801,-0.2898 -0.289803,-0.2898 h -1.706004 c -1.919439,0 -2.128796,0.0495 -2.339265,0.55323 -0.165619,0.39638 -0.16936,2.8062 -0.005,3.19964 0.06345,0.15186 0.844499,1.15983 1.735666,2.23995 l 1.620307,1.96385 v 1.271 1.27099 H 79.078666 77.978 v -1.3456 c 0,-1.14892 -0.01958,-1.35312 -0.133925,-1.397 -0.232876,-0.0894 -0.928675,-0.0556 -1.034475,0.0502 -0.07112,0.0711 -0.1016,0.53718 -0.1016,1.5537 0,2.35331 -0.03158,2.32327 2.442633,2.32372 l 1.722966,3.4e-4 0.287867,-0.28787 z m 2.632338,0.14934 c 0.02924,-0.0762 0.133104,-0.63816 0.230816,-1.24883 l 0.17766,-1.11031 h 1.012441 1.012441 l 0.189163,1.13435 c 0.104041,0.62389 0.208933,1.18587 0.233095,1.24883 0.06493,0.16921 1.114508,0.15954 1.179898,-0.0109 0.05331,-0.13894 -1.846372,-11.06494 -1.976562,-11.36815 -0.07293,-0.16986 -0.141924,-0.1905 -0.636599,-0.1905 -0.366211,0 -0.56831,0.036 -0.594534,0.10583 -0.07464,0.19885 -1.986957,11.0189 -1.986957,11.24239 0,0.31004 0.04672,0.33578 0.609435,0.33578 0.38163,0 0.508848,-0.0321 0.549703,-0.13853 z m 0.617179,-3.65031 c -0.0041,-0.15419 0.789846,-4.93389 0.815315,-4.90842 0.0318,0.0318 0.79413,4.69981 0.794683,4.86609 2.54e-4,0.0773 -0.216772,0.10583 -0.803982,0.10583 -0.442383,0 -0.80509,-0.0286 -0.806016,-0.0635 z m 6.927416,3.68724 c 0.07679,-0.0768 0.1016,-1.35843 0.1016,-5.24934 v -5.14773 h 0.7874 c 0.499533,0 0.824544,-0.0371 0.889,-0.1016 0.140647,-0.14065 0.12989,-0.87019 -0.0146,-0.9901 -0.08211,-0.0682 -0.783785,-0.0898 -2.391833,-0.0739 l -2.275634,0.0226 -0.02579,0.50015 c -0.01768,0.34281 0.009,0.52218 0.08467,0.5702 0.06075,0.0385 0.462881,0.0706 0.893623,0.0713 l 0.783166,0.001 v 5.19289 c 0,2.85609 0.0254,5.21829 0.05644,5.24933 0.09795,0.0979 1.005715,0.0611 1.111955,-0.0452 z m 28.391091,-0.0278 c 0.53447,-0.18212 0.99333,-0.59063 1.22694,-1.09231 l 0.19991,-0.42933 8.5e-4,-4.19699 8.5e-4,-4.19698 -0.23284,-0.4591 c -0.26308,-0.51875 -0.78017,-0.95767 -1.28993,-1.09493 -0.19,-0.0512 -0.97075,-0.0791 -1.83794,-0.0658 l -1.50766,0.0231 -0.0219,5.715 c -0.0121,3.14325 -0.004,5.76263 0.0185,5.82083 0.0635,0.16629 2.94393,0.14661 3.44324,-0.0235 z m -2.21216,-5.71264 v -4.65667 h 0.81244 c 0.89809,0 1.17702,0.10047 1.41975,0.51137 0.12275,0.2078 0.13848,0.67379 0.13848,4.10323 0,3.34779 -0.018,3.90671 -0.13354,4.15023 -0.19681,0.41474 -0.5545,0.5485 -1.46676,0.5485 h -0.77037 z m 5.90727,5.73616 c 0.0473,-0.0582 0.17203,-0.6297 0.27718,-1.27 l 0.19118,-1.16416 h 1.00157 c 0.97032,0 1.00283,0.006 1.04176,0.1905 0.0221,0.10477 0.10092,0.59055 0.17515,1.0795 0.19704,1.29789 0.1874,1.28325 0.82508,1.25287 0.51992,-0.0248 0.52955,-0.0296 0.55237,-0.27921 0.0235,-0.25702 -1.87617,-11.15027 -1.97136,-11.30429 -0.0727,-0.1177 -1.11835,-0.10578 -1.19213,0.0136 -0.10507,0.17 -2.06501,11.32369 -2.01343,11.4581 0.0629,0.16387 0.98271,0.18298 1.11263,0.0231 z m 0.66164,-3.76766 c 0.0185,-0.0815 0.18761,-1.11972 0.37568,-2.30717 0.18807,-1.18745 0.36539,-2.25425 0.39405,-2.37067 0.0437,-0.17763 0.35801,1.5354 0.81938,4.46617 l 0.0567,0.35983 h -0.83974 c -0.75616,0 -0.83639,-0.0147 -0.80602,-0.14816 z m 7.31345,3.70973 c 0.0539,-0.10078 0.0876,-1.00608 0.0876,-2.35385 0,-2.06009 0.0119,-2.23002 0.20111,-2.86306 0.11061,-0.37015 0.57011,-1.88729 1.02111,-3.37144 0.451,-1.48415 0.79985,-2.75098 0.77522,-2.81517 -0.0317,-0.0826 -0.20555,-0.11671 -0.5948,-0.11671 -0.43756,0 -0.56602,0.0303 -0.62829,0.14816 -0.0431,0.0815 -0.37523,1.24355 -0.73818,2.58234 -0.36295,1.33879 -0.68149,2.43384 -0.70787,2.43344 -0.0264,-4.2e-4 -0.32959,-1.03862 -0.6738,-2.30716 -0.84101,-3.09948 -0.72169,-2.85678 -1.4045,-2.85678 -0.39384,0 -0.57037,0.034 -0.60183,0.11602 -0.0424,0.11058 0.82012,3.08129 1.6219,5.5859 l 0.37526,1.17227 v 2.24113 c 0,1.38297 0.0336,2.30385 0.0877,2.40491 0.0715,0.13365 0.17999,0.16377 0.58969,0.16377 0.4097,0 0.51816,-0.0301 0.58969,-0.16377 z M 91.247249,141.67238 c 0.507188,-0.29721 0.785417,-0.80474 0.785417,-1.43271 0,-0.83689 -0.563726,-1.51393 -1.406483,-1.68919 -0.444574,-0.0925 -1.034056,0.11139 -1.433785,0.49582 -1.449579,1.39408 0.313086,3.64675 2.054851,2.62608 z m 31.026521,0.001 c 0.99036,-0.69757 0.99319,-2.16821 0.006,-2.86392 -1.35356,-0.95343 -3.23322,0.52701 -2.59846,2.04658 0.43301,1.03659 1.71013,1.43916 2.59295,0.81734 z m -25.983885,-6.33271 c 0.610873,-0.25818 1.004209,-0.85937 1.004209,-1.53486 0,-1.14682 -1.081858,-1.97566 -2.157946,-1.65326 -0.652314,0.19544 -1.238537,0.98038 -1.240343,1.6608 -0.0014,0.52542 0.425401,1.21153 0.914238,1.4697 0.372257,0.1966 1.085308,0.22436 1.479842,0.0576 z m 20.658665,0.001 c 0.38388,-0.16071 0.88654,-0.74672 0.95541,-1.11385 0.20051,-1.06879 -0.44055,-1.99523 -1.47679,-2.13422 -0.99415,-0.13335 -1.96731,0.85965 -1.85128,1.88902 0.0552,0.48954 0.41906,1.02473 0.87063,1.28049 0.39005,0.22093 1.07623,0.25682 1.50203,0.0786 z m -14.351,-2.6421 c 1.21782,-0.50871 1.48336,-2.02781 0.50467,-2.88711 -0.85618,-0.75173 -2.13133,-0.52285 -2.66648,0.4786 -0.28981,0.54233 -0.24405,1.2885 0.10983,1.79092 0.46773,0.66407 1.32387,0.92174 2.05198,0.61759 z m 7.48422,-0.17028 c 0.99036,-0.69757 0.99319,-2.16821 0.006,-2.86392 -1.35059,-0.95134 -3.23183,0.53034 -2.59846,2.04658 0.43301,1.03659 1.71013,1.43916 2.59295,0.81734 z"
         id="path457"
         inkscape:connector-curvature="0" />
      <path
         style="fill:#1e62b4;stroke-width:0.08466667"
         d="m 100.99948,167.771 c -0.20523,-0.10835 -0.48745,-0.35928 -0.62715,-0.55762 -0.23792,-0.3378 -0.254,-0.4102 -0.254,-1.14374 0,-0.71591 0.0199,-0.81155 0.23146,-1.11454 0.37431,-0.53598 0.75791,-0.74533 1.43589,-0.78364 0.73641,-0.0416 1.21894,0.13021 1.62364,0.57817 0.67268,0.74457 0.63224,2.05529 -0.0841,2.72705 -0.5627,0.52765 -1.62831,0.6625 -2.3257,0.29432 z m 1.57391,0.0175 c 0.52482,-0.1457 1.01406,-0.68897 1.14378,-1.2701 0.35426,-1.58699 -1.11751,-2.75917 -2.59855,-2.06961 -0.62146,0.28935 -0.9009,0.73199 -0.94403,1.49537 -0.0264,0.46767 0.003,0.65057 0.15473,0.96416 0.38677,0.79896 1.27777,1.14844 2.24407,0.88018 z m 5.67294,0.0391 c -0.68813,-0.36214 -1.05351,-0.96603 -1.05647,-1.74611 -0.004,-1.17851 0.74252,-1.92345 1.92878,-1.92345 0.75495,0 1.22182,0.23212 1.60419,0.79757 0.25549,0.3778 0.27517,0.45701 0.27517,1.10743 0,0.65043 -0.0197,0.72964 -0.27517,1.10744 -0.38734,0.5728 -0.84839,0.79854 -1.62198,0.79417 -0.37744,-0.002 -0.69487,-0.053 -0.85452,-0.13705 z m 1.78246,-0.16762 c 0.18381,-0.095 0.44851,-0.3345 0.58821,-0.53227 0.23256,-0.32923 0.254,-0.41845 0.254,-1.05698 0,-0.62291 -0.0254,-0.73584 -0.23828,-1.05746 -0.60259,-0.91057 -2.02544,-1.02744 -2.82007,-0.23165 -0.898,0.89933 -0.56374,2.55069 0.60302,2.97907 0.44563,0.16361 1.19168,0.11703 1.61312,-0.10071 z m -15.291769,-3.07606 c -0.414836,-0.21933 -0.819159,-0.6514 -0.933348,-0.9974 -0.05251,-0.1591 -0.08132,-0.56944 -0.06403,-0.91187 0.02654,-0.52558 0.07081,-0.67849 0.284064,-0.98127 0.364779,-0.5179 0.858112,-0.75267 1.581647,-0.75267 1.186259,0 1.933261,0.74494 1.928785,1.92345 -0.0031,0.81575 -0.414061,1.46132 -1.117255,1.75506 -0.438928,0.18335 -1.300559,0.16524 -1.679863,-0.0353 z m 1.486365,-0.0128 c 0.465421,-0.12921 1.01337,-0.69284 1.143838,-1.17657 0.347941,-1.29006 -0.55987,-2.4471 -1.846942,-2.354 -0.630242,0.0456 -1.094091,0.28859 -1.413283,0.74039 -0.228857,0.32394 -0.254,0.42377 -0.254,1.00846 0,0.97927 0.307407,1.46594 1.105562,1.75027 0.408187,0.14541 0.817648,0.15559 1.264825,0.0315 z m 19.084764,-0.0158 c -1.2252,-0.64134 -1.32376,-2.50719 -0.17509,-3.31451 0.3168,-0.22266 0.45426,-0.26121 1.02341,-0.28706 0.73411,-0.0333 1.12452,0.10564 1.54687,0.55064 0.68701,0.72385 0.65286,2.07756 -0.0695,2.75493 -0.56154,0.52656 -1.62633,0.66208 -2.32569,0.296 z m 1.57418,0.0167 c 0.50986,-0.14007 1.01757,-0.70946 1.14656,-1.28584 0.39128,-1.74841 -1.50138,-2.93696 -2.95579,-1.85617 -0.65067,0.48353 -0.8123,1.72628 -0.32105,2.4686 0.41606,0.62871 1.28878,0.90459 2.13028,0.67341 z m -21.84691,-4.83693 c -0.02235,-0.0587 -0.03084,-5.0026 -0.01886,-10.98642 L 95.038332,137.869 H 101.854 c 7.15696,0 7.60215,0.0193 8.97085,0.3889 1.3543,0.3657 2.61495,1.30868 3.29063,2.46141 0.55692,0.95015 0.7117,1.57376 0.75665,3.04867 0.0473,1.55084 -0.0647,2.22025 -0.53551,3.20272 -0.64927,1.35481 -1.96056,2.55539 -3.28138,3.00435 l -0.47278,0.1607 0.48294,0.26599 c 0.50028,0.27554 1.43037,1.25861 2.00412,2.11828 0.15674,0.23487 1.033,1.87044 1.94724,3.6346 1.16999,2.2577 1.65377,3.27206 1.63365,3.42532 -0.0261,0.19848 -0.037,0.18974 -0.12412,-0.0989 -0.11734,-0.38902 -3.16928,-6.3094 -3.52479,-6.83766 -0.39492,-0.58682 -1.20588,-1.56356 -1.51439,-1.82397 -0.1526,-0.12881 -0.4984,-0.33892 -0.76844,-0.46692 l -0.491,-0.23274 0.44866,-0.14697 c 1.52461,-0.49942 2.81855,-1.57919 3.49712,-2.91829 0.46486,-0.91736 0.59234,-1.55699 0.59043,-2.96245 -0.001,-0.9974 -0.0383,-1.4444 -0.1538,-1.86266 -0.51298,-1.85698 -1.78189,-3.20808 -3.53526,-3.76425 -1.50122,-0.47619 -1.8292,-0.49514 -9.19965,-0.53169 l -6.794504,-0.0337 v 10.92781 10.92782 h 3.556 3.556004 v -4.37199 -4.37199 l 0.47556,0.0559 c 0.69319,0.0815 1.25633,0.35473 1.64798,0.79966 0.39312,0.44661 0.59209,0.79388 2.78497,4.86076 l 1.63163,3.02599 3.90543,0.0233 3.90542,0.0233 -3.96166,-0.001 -3.96166,-10e-4 -1.93718,-3.57591 c -1.06545,-1.96676 -2.02251,-3.70031 -2.1268,-3.85234 -0.52221,-0.7613 -1.00991,-1.07385 -1.78528,-1.14416 l -0.49218,-0.0446 -0.0219,4.30852 -0.022,4.30853 -3.579472,0.0221 c -2.818378,0.0174 -3.588111,-5.9e-4 -3.620108,-0.0847 z m -5.500421,-0.56216 c -0.734512,-0.33694 -1.058333,-0.88283 -1.058333,-1.78409 0,-0.8596 0.284603,-1.365 0.96514,-1.71391 0.269526,-0.13819 0.457412,-0.16388 1.023348,-0.13993 0.598262,0.0253 0.741103,0.0625 1.04289,0.27174 0.218404,0.15141 0.430198,0.40398 0.564152,0.67279 0.503498,1.01039 0.1136,2.26001 -0.840361,2.69333 -0.451589,0.20513 -1.249749,0.20516 -1.696836,7e-5 z m 1.456885,-0.0531 c 1.053068,-0.31272 1.533915,-1.69629 0.932608,-2.68343 -0.369353,-0.60635 -0.945638,-0.87186 -1.763904,-0.81268 -1.294533,0.0936 -1.993221,1.4451 -1.381617,2.67243 0.402174,0.80705 1.230582,1.1154 2.212913,0.82368 z m 29.446446,0.056 c -0.69039,-0.32853 -1.05959,-0.94614 -1.05647,-1.76729 0.002,-0.6004 0.20573,-1.07659 0.61259,-1.43382 0.4096,-0.35963 0.81362,-0.47726 1.50505,-0.4382 0.48559,0.0274 0.63941,0.0758 0.94459,0.29685 0.53077,0.38449 0.74591,0.84413 0.74591,1.59361 0,0.75065 -0.2152,1.20917 -0.74898,1.59584 -0.32473,0.23523 -0.44325,0.26909 -1.01582,0.29023 -0.49891,0.0184 -0.7262,-0.0132 -0.98687,-0.13722 z m 1.70905,-0.13459 c 0.30404,-0.14156 0.51232,-0.31514 0.67733,-0.56449 0.2123,-0.3208 0.23829,-0.43528 0.23829,-1.04977 0,-0.61448 -0.026,-0.72896 -0.23829,-1.04977 -0.45019,-0.68028 -1.52439,-0.96612 -2.30244,-0.61266 -1.08844,0.49447 -1.40067,1.96196 -0.60921,2.86337 0.55223,0.62896 1.42459,0.79033 2.23432,0.41332 z m -45.149794,-4.35623 c -0.426758,-0.26023 -0.46493,-0.467 -0.439571,-2.38112 L 76.581,150.569 h 0.762 0.762 l 0.02326,1.37584 0.02326,1.37583 h 0.929236 0.929236 v -1.10772 -1.10773 l -1.582219,-1.9112 c -0.870221,-1.05116 -1.651271,-2.04664 -1.735666,-2.21218 -0.131633,-0.25818 -0.153448,-0.52171 -0.153448,-1.85361 0,-2.36608 -0.06772,-2.30623 2.609044,-2.30623 1.775152,0 1.865552,0.008 2.088798,0.18355 0.407779,0.32076 0.466825,0.60241 0.466825,2.22673 0,0.93315 -0.03144,1.48439 -0.08467,1.48439 -0.0534,0 -0.08467,-0.57996 -0.08467,-1.57054 0,-1.7578 -0.05463,-1.98406 -0.518061,-2.14561 -0.161661,-0.0564 -0.932174,-0.0938 -1.928739,-0.0937 -2.444278,1.7e-4 -2.450943,0.006 -2.459087,2.14255 -0.0026,0.68952 0.0374,1.4212 0.08896,1.62595 0.07398,0.29381 0.439818,0.79129 1.735667,2.36025 l 1.641925,1.98798 v 1.1909 1.19091 h -1.016 -1.016 v -1.397 -1.397 H 77.343 76.623333 l 0.0048,1.62983 c 0.0075,2.56928 -0.04204,2.5185 2.459087,2.5187 1.824591,1.7e-4 2.129998,-0.0562 2.322373,-0.42817 0.176818,-0.34193 0.180085,-3.51519 0.004,-3.91358 -0.06622,-0.14985 -0.847269,-1.14229 -1.735666,-2.20543 l -1.615266,-1.93299 v -1.00918 -1.00918 h 1.016 1.016 l -0.01872,1.29116 -0.01872,1.29117 -0.02587,-1.24883 -0.02587,-1.24884 h -0.929069 -0.92907 v 0.92115 0.92114 l 1.613634,1.93636 c 0.887498,1.06499 1.678073,2.05065 1.756833,2.19035 0.11728,0.20803 0.148291,0.54518 0.17133,1.86267 0.03144,1.79771 -0.02303,2.11746 -0.417156,2.44909 l -0.258967,0.21791 -1.877337,-3.4e-4 c -1.687337,-2.5e-4 -1.903727,-0.0164 -2.138084,-0.15932 z m 6.194552,0.0969 0.68447,-0.0283 0.195092,-1.2668 0.195092,-1.26681 h 0.952542 0.952544 l 0.193697,1.27 0.193698,1.27 h 0.704697 c 0.585982,0 0.704696,-0.0225 0.704696,-0.13385 0,-0.0736 -0.4572,-2.72637 -1.016,-5.89502 -0.5588,-3.16864 -1.016,-5.77541 -1.016,-5.79281 0,-0.0174 -0.32385,-0.0317 -0.719667,-0.0317 -0.657115,0 -0.719666,0.0144 -0.719666,0.16513 0,0.1828 -2.011474,11.5108 -2.067917,11.64587 -0.140711,0.33672 0.07013,-0.99328 0.884681,-5.58055 0.513388,-2.89123 0.980428,-5.48538 1.037866,-5.76478 l 0.104434,-0.508 0.727189,-0.0243 c 0.517163,-0.0173 0.751376,0.007 0.810938,0.0847 0.113603,0.14777 2.078533,11.33573 2.043937,11.63781 l -0.02746,0.2398 -0.711794,0.0248 c -0.391487,0.0136 -0.746415,-0.01 -0.788729,-0.0521 -0.04231,-0.0423 -0.160522,-0.60592 -0.262684,-1.25247 L 86.062043,152.347 h -0.845044 -0.845043 l -0.183142,1.15904 c -0.100727,0.63746 -0.208116,1.19944 -0.238641,1.24883 -0.0333,0.0539 -0.332917,0.0829 -0.749004,0.0726 l -0.693503,-0.0172 z m 6.868018,0.009 c -0.03272,-0.0327 -0.05949,-2.39496 -0.05949,-5.24941 v -5.18993 l -0.867833,-0.0241 -0.867834,-0.0241 v -0.71967 -0.71966 h 2.54 2.54 v 0.71966 0.71967 l -0.867189,0.0241 -0.867188,0.0241 -0.02181,5.22522 -0.02181,5.22521 -0.723676,0.0242 c -0.398022,0.0133 -0.750447,-0.003 -0.783167,-0.0353 z m 1.46451,-5.2806 v -5.24933 h 0.889 0.889 v -0.67734 -0.67733 h -2.497667 -2.497666 v 0.67733 0.67734 h 0.889 0.888999 v 5.24933 5.24933 h 0.719667 0.719667 z m 24.570264,5.2324 c -0.14695,-0.14695 -0.14695,-11.67252 0,-11.81947 0.12947,-0.12946 3.26869,-0.14047 3.72743,-0.0131 0.52141,0.14481 1.01233,0.57722 1.2933,1.13915 l 0.254,0.50799 v 4.27567 4.27566 l -0.254,0.50799 c -0.28097,0.56194 -0.77189,0.99434 -1.2933,1.13915 -0.45874,0.12741 -3.59796,0.1164 -3.72743,-0.0131 z m 3.67187,-0.10763 c 0.51663,-0.15414 0.99808,-0.5428 1.24549,-1.00546 0.18743,-0.35049 0.18804,-0.36622 0.18804,-4.79664 0,-4.43043 -5.9e-4,-4.44616 -0.18804,-4.79665 -0.10343,-0.1934 -0.33203,-0.47072 -0.508,-0.61626 -0.52362,-0.43306 -0.9553,-0.51376 -2.74833,-0.51376 h -1.59329 v 5.92667 5.92666 h 1.59329 c 1.15681,0 1.70769,-0.0341 2.01084,-0.12456 z m -2.1648,-5.8021 v -4.572 h 0.72387 c 0.48143,0 0.80705,0.043 0.97223,0.12843 0.50605,0.26169 0.50523,0.25453 0.50523,4.44357 0,4.18903 8.5e-4,4.18188 -0.50523,4.44356 -0.16518,0.0854 -0.4908,0.12844 -0.97223,0.12844 H 117.602 Z m 1.55726,4.35896 c 0.56731,-0.26921 0.5594,-0.20765 0.5594,-4.35506 0,-4.1005 -1.6e-4,-4.10161 -0.50522,-4.3628 -0.15766,-0.0815 -0.48181,-0.12844 -0.88757,-0.12844 h -0.63921 v 4.48734 4.48733 h 0.60104 c 0.36171,0 0.70876,-0.0511 0.87156,-0.12837 z m 2.98652,1.59593 c -0.0311,-0.031 -0.0564,-0.16941 -0.0564,-0.30748 0,-0.3281 1.93232,-11.21969 2.03463,-11.46825 0.0726,-0.17637 0.13155,-0.1905 0.79489,-0.1905 0.41191,0 0.73999,0.038 0.77177,0.0895 0.0761,0.12305 2.07021,11.41587 2.06239,11.67921 -0.006,0.1956 -0.0115,0.19238 -0.0756,-0.0423 -0.0381,-0.1397 -0.52044,-2.81623 -1.07185,-5.94784 l -1.00257,-5.69383 h -0.69852 c -0.40044,0 -0.69851,0.0355 -0.69851,0.0831 0,0.0457 -0.4572,2.64839 -1.016,5.78374 -0.5588,3.13536 -1.016,5.76342 -1.016,5.84015 0,0.11597 0.11778,0.14431 0.6985,0.16802 l 0.6985,0.0285 -0.68439,0.0172 c -0.37641,0.009 -0.70979,-0.008 -0.74083,-0.0392 z m 4.02895,-0.0494 c -0.0462,-0.0582 -0.14914,-0.54399 -0.22874,-1.0795 -0.22482,-1.51249 -0.10115,-1.35467 -1.06151,-1.35467 h -0.82717 l -0.1981,1.24883 c -0.10895,0.68686 -0.21149,1.16318 -0.22786,1.05848 -0.0259,-0.16599 0.14924,-1.48579 0.2866,-2.15914 l 0.0475,-0.23284 h 0.94865 0.94864 l 0.15203,1.0795 c 0.2265,1.6083 0.12672,1.44927 0.93008,1.48232 l 0.69015,0.0284 -0.68814,0.0172 c -0.46739,0.0117 -0.71507,-0.0167 -0.77213,-0.0886 z m 4.27543,0.0438 c 0.19791,-0.0178 0.52176,-0.0178 0.71967,0 0.19791,0.0178 0.036,0.0324 -0.35983,0.0324 -0.39582,0 -0.55774,-0.0146 -0.35984,-0.0324 z m -0.48772,-2.47801 -0.0432,-2.49767 -0.43507,-1.31233 c -0.79338,-2.39308 -1.56375,-5.07963 -1.53671,-5.35908 l 0.0262,-0.27125 0.72789,-0.0243 c 0.51709,-0.0172 0.75265,0.007 0.81338,0.0847 0.047,0.0599 0.34248,1.06144 0.65657,2.22561 0.31408,1.16416 0.59639,2.14396 0.62733,2.17731 0.0309,0.0334 0.3188,-0.91914 0.63968,-2.11666 0.32087,-1.19753 0.62135,-2.22634 0.66773,-2.28626 0.0599,-0.0775 0.29468,-0.10193 0.8122,-0.0847 l 0.72789,0.0243 0.0259,0.26675 c 0.0222,0.22874 -0.93277,3.54716 -1.75066,6.08325 -0.20814,0.6454 -0.22068,0.79309 -0.26592,3.13266 l -0.0475,2.45534 -0.0181,-2.41735 c -0.0174,-2.32684 -0.0105,-2.44255 0.18302,-3.09033 0.11061,-0.37015 0.56781,-1.87967 1.016,-3.35451 0.4482,-1.47483 0.8149,-2.76071 0.8149,-2.8575 0,-0.16406 -0.0476,-0.17598 -0.70285,-0.17598 h -0.70284 l -0.67262,2.4938 c -0.36994,1.3716 -0.69634,2.46697 -0.72533,2.43417 -0.029,-0.0328 -0.35123,-1.15501 -0.71608,-2.4938 l -0.66336,-2.43417 h -0.70246 c -0.66273,0 -0.70246,0.0103 -0.70246,0.18235 0,0.19813 0.84415,3.0661 1.57651,5.35612 l 0.458,1.43214 -0.0224,2.46253 -0.0224,2.46253 z m -45.462562,-1.524 c 0.0014,-0.0698 0.164511,-1.1097 0.362471,-2.31078 l 0.359928,-2.18378 0.360529,2.26845 c 0.198291,1.24764 0.359029,2.28749 0.357194,2.31078 -0.0018,0.0233 -0.327184,0.0423 -0.723001,0.0423 -0.58439,0 -0.719188,-0.0239 -0.717121,-0.127 z m 1.043825,-1.7145 c -0.15384,-0.94297 -0.285408,-1.7907 -0.292374,-1.88383 -0.01279,-0.171 -0.08077,0.19759 -0.441156,2.39183 l -0.198155,1.2065 h 0.605696 0.605696 z m 38.623957,1.67217 c 0.0214,-0.0931 0.17119,-0.98849 0.33285,-1.98967 0.16165,-1.00118 0.31889,-1.95368 0.34942,-2.11667 0.0422,-0.22517 0.14359,0.24245 0.42232,1.94734 0.20175,1.23401 0.36823,2.26271 0.36995,2.286 0.002,0.0233 -0.3381,0.0423 -0.75517,0.0423 -0.71483,0 -0.75607,-0.01 -0.71937,-0.16933 z m 1.30964,-0.0212 c 6.8e-4,-0.0349 -0.12157,-0.83934 -0.27176,-1.78759 -0.16817,-1.06178 -0.2968,-1.66349 -0.33483,-1.56634 -0.034,0.0868 -0.16215,0.80546 -0.28484,1.5971 -0.12269,0.79163 -0.24343,1.52506 -0.26832,1.62983 -0.0437,0.18393 -0.0245,0.1905 0.5566,0.1905 0.33102,0 0.60244,-0.0286 0.60315,-0.0635 z m -44.980467,-3.89316 c 0.197908,-0.0178 0.521758,-0.0178 0.719666,0 0.197909,0.0178 0.03598,0.0324 -0.359833,0.0324 -0.395817,0 -0.557742,-0.0146 -0.359833,-0.0324 z m 21.695837,-2.18227 v -2.01064 l 1.92616,0.0437 c 2.23287,0.0506 2.63134,0.13275 3.14739,0.6488 0.72777,0.72777 0.62408,2.04665 -0.21099,2.68359 -0.49092,0.37444 -1.43724,0.54783 -3.27506,0.60009 l -1.5875,0.0451 z m 3.57544,1.68211 c 0.38512,-0.0764 0.84305,-0.21046 1.01763,-0.29801 0.7393,-0.37077 1.05238,-1.48418 0.639,-2.2725 -0.40199,-0.76659 -1.35469,-1.00636 -4.02557,-1.01315 l -1.12184,-0.003 v 1.86266 1.86267 h 1.39528 c 0.95192,0 1.61778,-0.0441 2.0955,-0.13882 z m -16.173634,-4.26797 c -0.729266,-0.29265 -1.11781,-0.92861 -1.11781,-1.82962 0,-0.73503 0.218663,-1.19826 0.745907,-1.5802 0.305185,-0.22107 0.458997,-0.26941 0.944588,-0.29685 0.691433,-0.0391 1.095456,0.0786 1.505058,0.4382 0.413252,0.36284 0.610728,0.83242 0.610728,1.45226 0,0.83399 -0.403988,1.47634 -1.115395,1.77351 -0.343969,0.14368 -1.259495,0.16853 -1.573076,0.0427 z m 1.549916,-0.15378 c 1.392698,-0.63269 1.392698,-2.69217 0,-3.32486 -0.778047,-0.35346 -1.852252,-0.0676 -2.302443,0.61266 -0.212298,0.3208 -0.238283,0.43528 -0.238283,1.04977 0,0.61449 0.02598,0.72897 0.238283,1.04977 0.450191,0.68028 1.524396,0.96612 2.302443,0.61266 z m 29.293938,0.10212 c -0.68813,-0.36213 -1.05351,-0.96602 -1.05647,-1.7461 -0.003,-0.81346 0.35126,-1.41183 1.04834,-1.77024 0.26765,-0.13762 0.45565,-0.16427 0.98799,-0.1401 0.56715,0.0258 0.70693,0.0647 1.01763,0.28354 0.1981,0.13953 0.45162,0.42513 0.56339,0.63468 0.17607,0.33014 0.19955,0.4733 0.17583,1.07228 -0.0241,0.6078 -0.058,0.73483 -0.28138,1.05184 -0.3713,0.52706 -0.85781,0.75536 -1.60081,0.75116 -0.37744,-0.002 -0.69487,-0.053 -0.85452,-0.13706 z m 1.70176,-0.14691 c 0.6288,-0.29279 0.96524,-0.85664 0.96524,-1.61764 0,-0.761 -0.33644,-1.32485 -0.96524,-1.61764 -1.2692,-0.59098 -2.67543,0.25926 -2.67543,1.61764 0,1.35758 1.40698,2.20827 2.67543,1.61764 z m -27.360483,-6.30254 c -0.430165,-0.20097 -0.949527,-0.79818 -1.019774,-1.17263 -0.02934,-0.15637 -0.03767,-0.53039 -0.01852,-0.83115 0.06595,-1.03566 0.760431,-1.65099 1.863386,-1.65099 0.683289,0 1.025274,0.12455 1.400712,0.51011 0.395273,0.40594 0.557909,0.89457 0.516131,1.55068 -0.04145,0.65101 -0.309272,1.11686 -0.846465,1.47236 -0.465764,0.30823 -1.371638,0.36635 -1.895473,0.12162 z m 1.443056,-0.0519 c 1.09077,-0.32828 1.551796,-1.66448 0.936525,-2.71437 -0.435623,-0.74333 -1.609899,-1.03718 -2.425039,-0.60684 -0.862836,0.45552 -1.175497,1.52985 -0.717605,2.46575 0.40426,0.82628 1.233998,1.14802 2.206119,0.85546 z m 19.211587,0.0456 c -0.73009,-0.33156 -1.04958,-0.87563 -1.04958,-1.78732 0,-1.20526 0.65332,-1.86119 1.85378,-1.86119 0.70115,0 0.90162,0.0663 1.3251,0.43811 0.8221,0.72181 0.85484,2.05028 0.0699,2.83638 -0.54266,0.54346 -1.47641,0.70227 -2.1992,0.37402 z m 1.36341,-0.0166 c 0.80671,-0.22035 1.2657,-0.86587 1.26269,-1.7758 -0.001,-0.44923 -0.0457,-0.63184 -0.22887,-0.94432 -0.53618,-0.91492 -2.04151,-1.11536 -2.843,-0.37855 -0.72827,0.66952 -0.67639,2.23481 0.0922,2.78211 0.53869,0.38358 1.09567,0.48627 1.71696,0.31656 z m -15.79818,-2.72654 c -0.22901,-0.11987 -0.47944,-0.3525 -0.64831,-0.60223 -0.25549,-0.37781 -0.27517,-0.45701 -0.27517,-1.10744 0,-0.65043 0.0197,-0.72963 0.27517,-1.10744 0.38237,-0.56544 0.84924,-0.79756 1.60418,-0.79756 1.17771,0 1.93065,0.74294 1.93065,1.905 0,0.78959 -0.36012,1.3969 -1.03379,1.74342 -0.46437,0.23886 -1.36322,0.22249 -1.85273,-0.0337 z m 1.57391,0.0158 c 0.52482,-0.1457 1.01406,-0.68897 1.14378,-1.27011 0.35426,-1.58698 -1.11751,-2.75916 -2.59855,-2.0696 -0.6144,0.28606 -0.88266,0.70954 -0.93782,1.48047 -0.035,0.48859 -0.0106,0.65038 0.14698,0.97588 0.38834,0.80219 1.27773,1.15205 2.24561,0.88336 z m 5.67294,0.0391 c -0.68813,-0.36213 -1.05351,-0.96602 -1.05647,-1.7461 -0.004,-1.17852 0.74252,-1.92345 1.92878,-1.92345 0.75495,0 1.22182,0.23212 1.60419,0.79756 0.25549,0.37781 0.27517,0.45701 0.27517,1.10744 0,0.65043 -0.0197,0.72963 -0.27517,1.10744 -0.38734,0.57279 -0.84839,0.79854 -1.62198,0.79417 -0.37744,-0.002 -0.69487,-0.053 -0.85452,-0.13706 z m 1.78246,-0.16762 c 0.18381,-0.095 0.44851,-0.33449 0.58821,-0.53226 0.23256,-0.32924 0.254,-0.41845 0.254,-1.05698 0,-0.62292 -0.0254,-0.73584 -0.23828,-1.05746 -0.60259,-0.91057 -2.02544,-1.02745 -2.82007,-0.23165 -0.898,0.89932 -0.56374,2.55069 0.60302,2.97906 0.44563,0.16362 1.19168,0.11704 1.61312,-0.10071 z"
         id="path455"
         inkscape:connector-curvature="0" />
    </g>
  </g>
</svg>
